<?xml version="1.0" encoding="utf-8" standalone="no"?>
<!DOCTYPE svg PUBLIC "-//W3C//DTD SVG 1.1//EN"
  "http://www.w3.org/Graphics/SVG/1.1/DTD/svg11.dtd">
<svg xmlns:xlink="http://www.w3.org/1999/xlink" width="518.740157pt" height="382.677165pt" viewBox="0 0 518.740157 382.677165" xmlns="http://www.w3.org/2000/svg" version="1.1">
 <metadata>
  <rdf:RDF xmlns:dc="http://purl.org/dc/elements/1.1/" xmlns:cc="http://creativecommons.org/ns#" xmlns:rdf="http://www.w3.org/1999/02/22-rdf-syntax-ns#">
   <cc:Work>
    <dc:type rdf:resource="http://purl.org/dc/dcmitype/StillImage"/>
    <dc:date>2026-07-20T13:03:51.749535</dc:date>
    <dc:format>image/svg+xml</dc:format>
    <dc:creator>
     <cc:Agent>
      <dc:title>Matplotlib v3.10.8, https://matplotlib.org/</dc:title>
     </cc:Agent>
    </dc:creator>
   </cc:Work>
  </rdf:RDF>
 </metadata>
 <defs>
  <style type="text/css">*{stroke-linejoin: round; stroke-linecap: butt}</style>
 </defs>
 <g id="figure_1">
  <g id="patch_1">
   <path d="M 0 382.677165 
L 518.740157 382.677165 
L 518.740157 0 
L 0 0 
z
" style="fill: #ffffff"/>
  </g>
  <g id="axes_1">
   <g id="patch_2">
    <path d="M 59.655118 233.433071 
L 448.710236 233.433071 
L 448.710236 9.566929 
L 59.655118 9.566929 
z
" style="fill: #ffffff"/>
   </g>
   <g id="PathCollection_1">
    <path d="M 175.818495 24.39685 
C 176.259083 24.39685 176.681686 24.221803 176.993229 23.91026 
C 177.304772 23.598717 177.479819 23.176114 177.479819 22.735526 
C 177.479819 22.294937 177.304772 21.872335 176.993229 21.560792 
C 176.681686 21.249249 176.259083 21.074201 175.818495 21.074201 
C 175.377906 21.074201 174.955304 21.249249 174.643761 21.560792 
C 174.332217 21.872335 174.15717 22.294937 174.15717 22.735526 
C 174.15717 23.176114 174.332217 23.598717 174.643761 23.91026 
C 174.955304 24.221803 175.377906 24.39685 175.818495 24.39685 
z
" clip-path="url(#pabff2c554f)" style="fill: #1f77b4; fill-opacity: 0.9"/>
    <path d="M 83.625339 25.831491 
C 84.446398 25.831491 85.23394 25.50528 85.814517 24.924704 
C 86.395093 24.344127 86.721304 23.556585 86.721304 22.735526 
C 86.721304 21.914466 86.395093 21.126925 85.814517 20.546348 
C 85.23394 19.965771 84.446398 19.639561 83.625339 19.639561 
C 82.804279 19.639561 82.016738 19.965771 81.436161 20.546348 
C 80.855584 21.126925 80.529374 21.914466 80.529374 22.735526 
C 80.529374 23.556585 80.855584 24.344127 81.436161 24.924704 
C 82.016738 25.50528 82.804279 25.831491 83.625339 25.831491 
z
" clip-path="url(#pabff2c554f)" style="fill: #1f77b4; fill-opacity: 0.9"/>
    <path d="M 415.5207 24.299175 
C 415.935385 24.299175 416.333141 24.134419 416.626367 23.841193 
C 416.919594 23.547967 417.08435 23.15021 417.08435 22.735526 
C 417.08435 22.320841 416.919594 21.923085 416.626367 21.629858 
C 416.333141 21.336632 415.935385 21.171876 415.5207 21.171876 
C 415.106015 21.171876 414.708259 21.336632 414.415033 21.629858 
C 414.121806 21.923085 413.957051 22.320841 413.957051 22.735526 
C 413.957051 23.15021 414.121806 23.547967 414.415033 23.841193 
C 414.708259 24.134419 415.106015 24.299175 415.5207 24.299175 
z
" clip-path="url(#pabff2c554f)" style="fill: #1f77b4; fill-opacity: 0.9"/>
    <path d="M 369.424122 24.518781 
C 369.897047 24.518781 370.350666 24.330886 370.685074 23.996478 
C 371.019483 23.662069 371.207378 23.208451 371.207378 22.735526 
C 371.207378 22.262601 371.019483 21.808982 370.685074 21.474574 
C 370.350666 21.140165 369.897047 20.95227 369.424122 20.95227 
C 368.951197 20.95227 368.497578 21.140165 368.16317 21.474574 
C 367.828762 21.808982 367.640867 22.262601 367.640867 22.735526 
C 367.640867 23.208451 367.828762 23.662069 368.16317 23.996478 
C 368.497578 24.330886 368.951197 24.518781 369.424122 24.518781 
z
" clip-path="url(#pabff2c554f)" style="fill: #1f77b4; fill-opacity: 0.9"/>
    <path d="M 157.379863 25.033351 
C 157.989254 25.033351 158.573767 24.791237 159.004671 24.360333 
C 159.435575 23.929429 159.677688 23.344916 159.677688 22.735526 
C 159.677688 22.126135 159.435575 21.541622 159.004671 21.110718 
C 158.573767 20.679814 157.989254 20.437701 157.379863 20.437701 
C 156.770473 20.437701 156.18596 20.679814 155.755056 21.110718 
C 155.324152 21.541622 155.082038 22.126135 155.082038 22.735526 
C 155.082038 23.344916 155.324152 23.929429 155.755056 24.360333 
C 156.18596 24.791237 156.770473 25.033351 157.379863 25.033351 
z
" clip-path="url(#pabff2c554f)" style="fill: #1f77b4; fill-opacity: 0.9"/>
    <path d="M 120.502601 24.299175 
C 120.917286 24.299175 121.315042 24.134419 121.608268 23.841193 
C 121.901495 23.547967 122.066251 23.15021 122.066251 22.735526 
C 122.066251 22.320841 121.901495 21.923085 121.608268 21.629858 
C 121.315042 21.336632 120.917286 21.171876 120.502601 21.171876 
C 120.087916 21.171876 119.69016 21.336632 119.396934 21.629858 
C 119.103707 21.923085 118.938951 22.320841 118.938951 22.735526 
C 118.938951 23.15021 119.103707 23.547967 119.396934 23.841193 
C 119.69016 24.134419 120.087916 24.299175 120.502601 24.299175 
z
" clip-path="url(#pabff2c554f)" style="fill: #1f77b4; fill-opacity: 0.9"/>
    <path d="M 148.160548 24.518781 
C 148.633473 24.518781 149.087091 24.330886 149.4215 23.996478 
C 149.755908 23.662069 149.943803 23.208451 149.943803 22.735526 
C 149.943803 22.262601 149.755908 21.808982 149.4215 21.474574 
C 149.087091 21.140165 148.633473 20.95227 148.160548 20.95227 
C 147.687623 20.95227 147.234004 21.140165 146.899596 21.474574 
C 146.565187 21.808982 146.377292 22.262601 146.377292 22.735526 
C 146.377292 23.208451 146.565187 23.662069 146.899596 23.996478 
C 147.234004 24.330886 147.687623 24.518781 148.160548 24.518781 
z
" clip-path="url(#pabff2c554f)" style="fill: #1f77b4; fill-opacity: 0.9"/>
    <path d="M 65.186707 25.432746 
C 65.902019 25.432746 66.588129 25.14855 67.093931 24.642749 
C 67.599732 24.136947 67.883928 23.450837 67.883928 22.735526 
C 67.883928 22.020214 67.599732 21.334104 67.093931 20.828303 
C 66.588129 20.322501 65.902019 20.038305 65.186707 20.038305 
C 64.471396 20.038305 63.785286 20.322501 63.279484 20.828303 
C 62.773683 21.334104 62.489487 22.020214 62.489487 22.735526 
C 62.489487 23.450837 62.773683 24.136947 63.279484 24.642749 
C 63.785286 25.14855 64.471396 25.432746 65.186707 25.432746 
z
" clip-path="url(#pabff2c554f)" style="fill: #1f77b4; fill-opacity: 0.9"/>
    <path d="M 332.54686 24.364943 
C 332.978986 24.364943 333.393472 24.193257 333.699032 23.887698 
C 334.004591 23.582138 334.176277 23.167652 334.176277 22.735526 
C 334.176277 22.303399 334.004591 21.888913 333.699032 21.583354 
C 333.393472 21.277794 332.978986 21.106109 332.54686 21.106109 
C 332.114733 21.106109 331.700247 21.277794 331.394688 21.583354 
C 331.089128 21.888913 330.917443 22.303399 330.917443 22.735526 
C 330.917443 23.167652 331.089128 23.582138 331.394688 23.887698 
C 331.700247 24.193257 332.114733 24.364943 332.54686 24.364943 
z
" clip-path="url(#pabff2c554f)" style="fill: #1f77b4; fill-opacity: 0.9"/>
    <path d="M 286.450282 24.740519 
C 286.982012 24.740519 287.492036 24.529261 287.868026 24.15327 
C 288.244017 23.77728 288.455276 23.267256 288.455276 22.735526 
C 288.455276 22.203795 288.244017 21.693771 287.868026 21.317781 
C 287.492036 20.941791 286.982012 20.730532 286.450282 20.730532 
C 285.918551 20.730532 285.408527 20.941791 285.032537 21.317781 
C 284.656547 21.693771 284.445288 22.203795 284.445288 22.735526 
C 284.445288 23.267256 284.656547 23.77728 285.032537 24.15327 
C 285.408527 24.529261 285.918551 24.740519 286.450282 24.740519 
z
" clip-path="url(#pabff2c554f)" style="fill: #1f77b4; fill-opacity: 0.9"/>
    <path d="M 443.178647 25.432746 
C 443.893958 25.432746 444.580068 25.14855 445.08587 24.642749 
C 445.591671 24.136947 445.875868 23.450837 445.875868 22.735526 
C 445.875868 22.020214 445.591671 21.334104 445.08587 20.828303 
C 444.580068 20.322501 443.893958 20.038305 443.178647 20.038305 
C 442.463336 20.038305 441.777225 20.322501 441.271424 20.828303 
C 440.765622 21.334104 440.481426 22.020214 440.481426 22.735526 
C 440.481426 23.450837 440.765622 24.136947 441.271424 24.642749 
C 441.777225 25.14855 442.463336 25.432746 443.178647 25.432746 
z
" clip-path="url(#pabff2c554f)" style="fill: #1f77b4; fill-opacity: 0.9"/>
    <path d="M 304.888913 24.605018 
C 305.384708 24.605018 305.860263 24.408036 306.210843 24.057456 
C 306.561423 23.706876 306.758405 23.231321 306.758405 22.735526 
C 306.758405 22.239731 306.561423 21.764175 306.210843 21.413595 
C 305.860263 21.063015 305.384708 20.866034 304.888913 20.866034 
C 304.393118 20.866034 303.917563 21.063015 303.566983 21.413595 
C 303.216402 21.764175 303.019421 22.239731 303.019421 22.735526 
C 303.019421 23.231321 303.216402 23.706876 303.566983 24.057456 
C 303.917563 24.408036 304.393118 24.605018 304.888913 24.605018 
z
" clip-path="url(#pabff2c554f)" style="fill: #1f77b4; fill-opacity: 0.9"/>
    <path d="M 295.669597 24.39685 
C 296.110186 24.39685 296.532788 24.221803 296.844331 23.91026 
C 297.155874 23.598717 297.330922 23.176114 297.330922 22.735526 
C 297.330922 22.294937 297.155874 21.872335 296.844331 21.560792 
C 296.532788 21.249249 296.110186 21.074201 295.669597 21.074201 
C 295.229009 21.074201 294.806406 21.249249 294.494863 21.560792 
C 294.18332 21.872335 294.008273 22.294937 294.008273 22.735526 
C 294.008273 23.176114 294.18332 23.598717 294.494863 23.91026 
C 294.806406 24.221803 295.229009 24.39685 295.669597 24.39685 
z
" clip-path="url(#pabff2c554f)" style="fill: #1f77b4; fill-opacity: 0.9"/>
    <path d="M 221.915073 26.244799 
C 222.845743 26.244799 223.73842 25.87504 224.396504 25.216957 
C 225.054587 24.558874 225.424346 23.666196 225.424346 22.735526 
C 225.424346 21.804856 225.054587 20.912178 224.396504 20.254095 
C 223.73842 19.596011 222.845743 19.226252 221.915073 19.226252 
C 220.984402 19.226252 220.091725 19.596011 219.433642 20.254095 
C 218.775558 20.912178 218.405799 21.804856 218.405799 22.735526 
C 218.405799 23.666196 218.775558 24.558874 219.433642 25.216957 
C 220.091725 25.87504 220.984402 26.244799 221.915073 26.244799 
z
" clip-path="url(#pabff2c554f)" style="fill: #1f77b4; fill-opacity: 0.9"/>
    <path d="M 360.204807 24.299175 
C 360.619491 24.299175 361.017247 24.134419 361.310474 23.841193 
C 361.6037 23.547967 361.768456 23.15021 361.768456 22.735526 
C 361.768456 22.320841 361.6037 21.923085 361.310474 21.629858 
C 361.017247 21.336632 360.619491 21.171876 360.204807 21.171876 
C 359.790122 21.171876 359.392366 21.336632 359.099139 21.629858 
C 358.805913 21.923085 358.641157 22.320841 358.641157 22.735526 
C 358.641157 23.15021 358.805913 23.547967 359.099139 23.841193 
C 359.392366 24.134419 359.790122 24.299175 360.204807 24.299175 
z
" clip-path="url(#pabff2c554f)" style="fill: #1f77b4; fill-opacity: 0.9"/>
    <path d="M 212.695757 24.963754 
C 213.28669 24.963754 213.853499 24.728974 214.271352 24.311121 
C 214.689205 23.893268 214.923985 23.326459 214.923985 22.735526 
C 214.923985 22.144593 214.689205 21.577783 214.271352 21.159931 
C 213.853499 20.742078 213.28669 20.507298 212.695757 20.507298 
C 212.104824 20.507298 211.538015 20.742078 211.120162 21.159931 
C 210.702309 21.577783 210.467529 22.144593 210.467529 22.735526 
C 210.467529 23.326459 210.702309 23.893268 211.120162 24.311121 
C 211.538015 24.728974 212.104824 24.963754 212.695757 24.963754 
z
" clip-path="url(#pabff2c554f)" style="fill: #1f77b4; fill-opacity: 0.9"/>
    <path d="M 194.257126 25.60258 
C 195.017477 25.60258 195.746789 25.300489 196.284439 24.762839 
C 196.822089 24.225189 197.12418 23.495877 197.12418 22.735526 
C 197.12418 21.975174 196.822089 21.245862 196.284439 20.708212 
C 195.746789 20.170562 195.017477 19.868471 194.257126 19.868471 
C 193.496774 19.868471 192.767462 20.170562 192.229812 20.708212 
C 191.692162 21.245862 191.390072 21.975174 191.390072 22.735526 
C 191.390072 23.495877 191.692162 24.225189 192.229812 24.762839 
C 192.767462 25.300489 193.496774 25.60258 194.257126 25.60258 
z
" clip-path="url(#pabff2c554f)" style="fill: #1f77b4; fill-opacity: 0.9"/>
    <path d="M 74.406023 24.39685 
C 74.846612 24.39685 75.269214 24.221803 75.580757 23.91026 
C 75.8923 23.598717 76.067348 23.176114 76.067348 22.735526 
C 76.067348 22.294937 75.8923 21.872335 75.580757 21.560792 
C 75.269214 21.249249 74.846612 21.074201 74.406023 21.074201 
C 73.965435 21.074201 73.542832 21.249249 73.231289 21.560792 
C 72.919746 21.872335 72.744698 22.294937 72.744698 22.735526 
C 72.744698 23.176114 72.919746 23.598717 73.231289 23.91026 
C 73.542832 24.221803 73.965435 24.39685 74.406023 24.39685 
z
" clip-path="url(#pabff2c554f)" style="fill: #1f77b4; fill-opacity: 0.9"/>
    <path d="M 378.643438 24.158551 
C 379.020828 24.158551 379.382813 24.008612 379.649668 23.741756 
C 379.916524 23.474901 380.066463 23.112916 380.066463 22.735526 
C 380.066463 22.358135 379.916524 21.996151 379.649668 21.729295 
C 379.382813 21.46244 379.020828 21.312501 378.643438 21.312501 
C 378.266047 21.312501 377.904063 21.46244 377.637207 21.729295 
C 377.370352 21.996151 377.220413 22.358135 377.220413 22.735526 
C 377.220413 23.112916 377.370352 23.474901 377.637207 23.741756 
C 377.904063 24.008612 378.266047 24.158551 378.643438 24.158551 
z
" clip-path="url(#pabff2c554f)" style="fill: #1f77b4; fill-opacity: 0.9"/>
    <path d="M 111.283285 25.251475 
C 111.950523 25.251475 112.590522 24.986379 113.06233 24.51457 
C 113.534138 24.042762 113.799235 23.402763 113.799235 22.735526 
C 113.799235 22.068288 113.534138 21.428289 113.06233 20.956481 
C 112.590522 20.484673 111.950523 20.219577 111.283285 20.219577 
C 110.616048 20.219577 109.976049 20.484673 109.504241 20.956481 
C 109.032433 21.428289 108.767336 22.068288 108.767336 22.735526 
C 108.767336 23.402763 109.032433 24.042762 109.504241 24.51457 
C 109.976049 24.986379 110.616048 25.251475 111.283285 25.251475 
z
" clip-path="url(#pabff2c554f)" style="fill: #1f77b4; fill-opacity: 0.9"/>
    <path d="M 277.230966 26.707931 
C 278.28446 26.707931 279.294948 26.289373 280.039881 25.54444 
C 280.784813 24.799507 281.203371 23.78902 281.203371 22.735526 
C 281.203371 21.682032 280.784813 20.671544 280.039881 19.926611 
C 279.294948 19.181679 278.28446 18.763121 277.230966 18.763121 
C 276.177472 18.763121 275.166985 19.181679 274.422052 19.926611 
C 273.677119 20.671544 273.258561 21.682032 273.258561 22.735526 
C 273.258561 23.78902 273.677119 24.799507 274.422052 25.54444 
C 275.166985 26.289373 276.177472 26.707931 277.230966 26.707931 
z
" clip-path="url(#pabff2c554f)" style="fill: #1f77b4; fill-opacity: 0.9"/>
    <path d="M 185.03781 46.344511 
C 185.478399 46.344511 185.901001 46.169464 186.212544 45.857921 
C 186.524087 45.546378 186.699135 45.123775 186.699135 44.683187 
C 186.699135 44.242598 186.524087 43.819996 186.212544 43.508453 
C 185.901001 43.19691 185.478399 43.021862 185.03781 43.021862 
C 184.597222 43.021862 184.174619 43.19691 183.863076 43.508453 
C 183.551533 43.819996 183.376485 44.242598 183.376485 44.683187 
C 183.376485 45.123775 183.551533 45.546378 183.863076 45.857921 
C 184.174619 46.169464 184.597222 46.344511 185.03781 46.344511 
z
" clip-path="url(#pabff2c554f)" style="fill: #1f77b4; fill-opacity: 0.9"/>
    <path d="M 231.134388 46.887727 
C 231.719039 46.887727 232.279823 46.655443 232.693234 46.242032 
C 233.106645 45.828622 233.338929 45.267838 233.338929 44.683187 
C 233.338929 44.098536 233.106645 43.537752 232.693234 43.124341 
C 232.279823 42.71093 231.719039 42.478646 231.134388 42.478646 
C 230.549737 42.478646 229.988953 42.71093 229.575542 43.124341 
C 229.162132 43.537752 228.929847 44.098536 228.929847 44.683187 
C 228.929847 45.267838 229.162132 45.828622 229.575542 46.242032 
C 229.988953 46.655443 230.549737 46.887727 231.134388 46.887727 
z
" clip-path="url(#pabff2c554f)" style="fill: #1f77b4; fill-opacity: 0.9"/>
    <path d="M 203.476441 48.615743 
C 204.519368 48.615743 205.519719 48.201384 206.257179 47.463924 
C 206.994639 46.726464 207.408998 45.726113 207.408998 44.683187 
C 207.408998 43.640261 206.994639 42.63991 206.257179 41.902449 
C 205.519719 41.164989 204.519368 40.75063 203.476441 40.75063 
C 202.433515 40.75063 201.433164 41.164989 200.695704 41.902449 
C 199.958244 42.63991 199.543885 43.640261 199.543885 44.683187 
C 199.543885 45.726113 199.958244 46.726464 200.695704 47.463924 
C 201.433164 48.201384 202.433515 48.615743 203.476441 48.615743 
z
" clip-path="url(#pabff2c554f)" style="fill: #1f77b4; fill-opacity: 0.9"/>
    <path d="M 175.818495 47.15705 
C 176.474571 47.15705 177.103864 46.896388 177.56778 46.432472 
C 178.031696 45.968556 178.292358 45.339263 178.292358 44.683187 
C 178.292358 44.02711 178.031696 43.397817 177.56778 42.933901 
C 177.103864 42.469985 176.474571 42.209323 175.818495 42.209323 
C 175.162418 42.209323 174.533125 42.469985 174.069209 42.933901 
C 173.605293 43.397817 173.344631 44.02711 173.344631 44.683187 
C 173.344631 45.339263 173.605293 45.968556 174.069209 46.432472 
C 174.533125 46.896388 175.162418 47.15705 175.818495 47.15705 
z
" clip-path="url(#pabff2c554f)" style="fill: #1f77b4; fill-opacity: 0.9"/>
    <path d="M 83.625339 46.765253 
C 84.177509 46.765253 84.707138 46.545873 85.097582 46.15543 
C 85.488025 45.764986 85.707405 45.235357 85.707405 44.683187 
C 85.707405 44.131016 85.488025 43.601387 85.097582 43.210943 
C 84.707138 42.8205 84.177509 42.60112 83.625339 42.60112 
C 83.073168 42.60112 82.543539 42.8205 82.153095 43.210943 
C 81.762652 43.601387 81.543272 44.131016 81.543272 44.683187 
C 81.543272 45.235357 81.762652 45.764986 82.153095 46.15543 
C 82.543539 46.545873 83.073168 46.765253 83.625339 46.765253 
z
" clip-path="url(#pabff2c554f)" style="fill: #1f77b4; fill-opacity: 0.9"/>
    <path d="M 157.379863 48.05513 
C 158.274113 48.05513 159.131857 47.699841 159.764187 47.06751 
C 160.396517 46.43518 160.751806 45.577436 160.751806 44.683187 
C 160.751806 43.788937 160.396517 42.931193 159.764187 42.298863 
C 159.131857 41.666533 158.274113 41.311244 157.379863 41.311244 
C 156.485614 41.311244 155.62787 41.666533 154.99554 42.298863 
C 154.36321 42.931193 154.00792 43.788937 154.00792 44.683187 
C 154.00792 45.577436 154.36321 46.43518 154.99554 47.06751 
C 155.62787 47.699841 156.485614 48.05513 157.379863 48.05513 
z
" clip-path="url(#pabff2c554f)" style="fill: #1f77b4; fill-opacity: 0.9"/>
    <path d="M 332.54686 46.552679 
C 333.042655 46.552679 333.51821 46.355697 333.86879 46.005117 
C 334.21937 45.654537 334.416352 45.178982 334.416352 44.683187 
C 334.416352 44.187392 334.21937 43.711836 333.86879 43.361256 
C 333.51821 43.010676 333.042655 42.813695 332.54686 42.813695 
C 332.051065 42.813695 331.575509 43.010676 331.224929 43.361256 
C 330.874349 43.711836 330.677368 44.187392 330.677368 44.683187 
C 330.677368 45.178982 330.874349 45.654537 331.224929 46.005117 
C 331.575509 46.355697 332.051065 46.552679 332.54686 46.552679 
z
" clip-path="url(#pabff2c554f)" style="fill: #1f77b4; fill-opacity: 0.9"/>
    <path d="M 286.450282 46.495644 
C 286.930951 46.495644 287.391998 46.304672 287.731882 45.964787 
C 288.071767 45.624903 288.262739 45.163856 288.262739 44.683187 
C 288.262739 44.202517 288.071767 43.741471 287.731882 43.401586 
C 287.391998 43.061702 286.930951 42.87073 286.450282 42.87073 
C 285.969613 42.87073 285.508566 43.061702 285.168681 43.401586 
C 284.828797 43.741471 284.637825 44.202517 284.637825 44.683187 
C 284.637825 45.163856 284.828797 45.624903 285.168681 45.964787 
C 285.508566 46.304672 285.969613 46.495644 286.450282 46.495644 
z
" clip-path="url(#pabff2c554f)" style="fill: #1f77b4; fill-opacity: 0.9"/>
    <path d="M 221.915073 47.911964 
C 222.771354 47.911964 223.59268 47.571759 224.198163 46.966277 
C 224.803645 46.360794 225.143849 45.539468 225.143849 44.683187 
C 225.143849 43.826905 224.803645 43.005579 224.198163 42.400097 
C 223.59268 41.794614 222.771354 41.45441 221.915073 41.45441 
C 221.058791 41.45441 220.237465 41.794614 219.631983 42.400097 
C 219.0265 43.005579 218.686296 43.826905 218.686296 44.683187 
C 218.686296 45.539468 219.0265 46.360794 219.631983 46.966277 
C 220.237465 47.571759 221.058791 47.911964 221.915073 47.911964 
z
" clip-path="url(#pabff2c554f)" style="fill: #1f77b4; fill-opacity: 0.9"/>
    <path d="M 341.766175 46.911415 
C 342.357108 46.911415 342.923918 46.676634 343.34177 46.258782 
C 343.759623 45.840929 343.994403 45.27412 343.994403 44.683187 
C 343.994403 44.092254 343.759623 43.525444 343.34177 43.107592 
C 342.923918 42.689739 342.357108 42.454959 341.766175 42.454959 
C 341.175242 42.454959 340.608433 42.689739 340.19058 43.107592 
C 339.772727 43.525444 339.537947 44.092254 339.537947 44.683187 
C 339.537947 45.27412 339.772727 45.840929 340.19058 46.258782 
C 340.608433 46.676634 341.175242 46.911415 341.766175 46.911415 
z
" clip-path="url(#pabff2c554f)" style="fill: #1f77b4; fill-opacity: 0.9"/>
    <path d="M 360.204807 46.934853 
C 360.801955 46.934853 361.374727 46.697603 361.796975 46.275355 
C 362.219223 45.853107 362.456473 45.280335 362.456473 44.683187 
C 362.456473 44.086038 362.219223 43.513266 361.796975 43.091018 
C 361.374727 42.66877 360.801955 42.431521 360.204807 42.431521 
C 359.607658 42.431521 359.034886 42.66877 358.612638 43.091018 
C 358.19039 43.513266 357.95314 44.086038 357.95314 44.683187 
C 357.95314 45.280335 358.19039 45.853107 358.612638 46.275355 
C 359.034886 46.697603 359.607658 46.934853 360.204807 46.934853 
z
" clip-path="url(#pabff2c554f)" style="fill: #1f77b4; fill-opacity: 0.9"/>
    <path d="M 212.695757 47.003747 
C 213.311177 47.003747 213.901473 46.759238 214.336641 46.324071 
C 214.771808 45.888903 215.016317 45.298606 215.016317 44.683187 
C 215.016317 44.067767 214.771808 43.47747 214.336641 43.042303 
C 213.901473 42.607135 213.311177 42.362626 212.695757 42.362626 
C 212.080337 42.362626 211.490041 42.607135 211.054873 43.042303 
C 210.619706 43.47747 210.375197 44.067767 210.375197 44.683187 
C 210.375197 45.298606 210.619706 45.888903 211.054873 46.324071 
C 211.490041 46.759238 212.080337 47.003747 212.695757 47.003747 
z
" clip-path="url(#pabff2c554f)" style="fill: #1f77b4; fill-opacity: 0.9"/>
    <path d="M 350.985491 48.615743 
C 352.028417 48.615743 353.028768 48.201384 353.766228 47.463924 
C 354.503688 46.726464 354.918047 45.726113 354.918047 44.683187 
C 354.918047 43.640261 354.503688 42.63991 353.766228 41.902449 
C 353.028768 41.164989 352.028417 40.75063 350.985491 40.75063 
C 349.942565 40.75063 348.942214 41.164989 348.204754 41.902449 
C 347.467293 42.63991 347.052934 43.640261 347.052934 44.683187 
C 347.052934 45.726113 347.467293 46.726464 348.204754 47.463924 
C 348.942214 48.201384 349.942565 48.615743 350.985491 48.615743 
z
" clip-path="url(#pabff2c554f)" style="fill: #1f77b4; fill-opacity: 0.9"/>
    <path d="M 194.257126 46.981012 
C 194.866516 46.981012 195.451029 46.738898 195.881933 46.307994 
C 196.312838 45.87709 196.554951 45.292577 196.554951 44.683187 
C 196.554951 44.073796 196.312838 43.489283 195.881933 43.058379 
C 195.451029 42.627475 194.866516 42.385362 194.257126 42.385362 
C 193.647735 42.385362 193.063222 42.627475 192.632318 43.058379 
C 192.201414 43.489283 191.959301 44.073796 191.959301 44.683187 
C 191.959301 45.292577 192.201414 45.87709 192.632318 46.307994 
C 193.063222 46.738898 193.647735 46.981012 194.257126 46.981012 
z
" clip-path="url(#pabff2c554f)" style="fill: #1f77b4; fill-opacity: 0.9"/>
    <path d="M 111.283285 47.15705 
C 111.939362 47.15705 112.568655 46.896388 113.032571 46.432472 
C 113.496487 45.968556 113.757149 45.339263 113.757149 44.683187 
C 113.757149 44.02711 113.496487 43.397817 113.032571 42.933901 
C 112.568655 42.469985 111.939362 42.209323 111.283285 42.209323 
C 110.627209 42.209323 109.997916 42.469985 109.534 42.933901 
C 109.070084 43.397817 108.809422 44.02711 108.809422 44.683187 
C 108.809422 45.339263 109.070084 45.968556 109.534 46.432472 
C 109.997916 46.896388 110.627209 47.15705 111.283285 47.15705 
z
" clip-path="url(#pabff2c554f)" style="fill: #1f77b4; fill-opacity: 0.9"/>
    <path d="M 166.599179 46.815087 
C 167.164566 46.815087 167.706872 46.590457 168.10666 46.190668 
C 168.506449 45.790879 168.73108 45.248573 168.73108 44.683187 
C 168.73108 44.1178 168.506449 43.575494 168.10666 43.175705 
C 167.706872 42.775917 167.164566 42.551286 166.599179 42.551286 
C 166.033792 42.551286 165.491486 42.775917 165.091698 43.175705 
C 164.691909 43.575494 164.467278 44.1178 164.467278 44.683187 
C 164.467278 45.248573 164.691909 45.790879 165.091698 46.190668 
C 165.491486 46.590457 166.033792 46.815087 166.599179 46.815087 
z
" clip-path="url(#pabff2c554f)" style="fill: #1f77b4; fill-opacity: 0.9"/>
    <path d="M 102.06397 68.762748 
C 102.629356 68.762748 103.171662 68.538118 103.571451 68.138329 
C 103.97124 67.73854 104.19587 67.196234 104.19587 66.630848 
C 104.19587 66.065461 103.97124 65.523155 103.571451 65.123366 
C 103.171662 64.723578 102.629356 64.498947 102.06397 64.498947 
C 101.498583 64.498947 100.956277 64.723578 100.556489 65.123366 
C 100.1567 65.523155 99.932069 66.065461 99.932069 66.630848 
C 99.932069 67.196234 100.1567 67.73854 100.556489 68.138329 
C 100.956277 68.538118 101.498583 68.762748 102.06397 68.762748 
z
" clip-path="url(#pabff2c554f)" style="fill: #1f77b4; fill-opacity: 0.9"/>
    <path d="M 102.06397 90.965976 
C 102.697134 90.965976 103.30445 90.714417 103.752164 90.266703 
C 104.199879 89.818989 104.451437 89.211672 104.451437 88.578509 
C 104.451437 87.945345 104.199879 87.338029 103.752164 86.890314 
C 103.30445 86.4426 102.697134 86.191041 102.06397 86.191041 
C 101.430806 86.191041 100.82349 86.4426 100.375776 86.890314 
C 99.928061 87.338029 99.676503 87.945345 99.676503 88.578509 
C 99.676503 89.211672 99.928061 89.818989 100.375776 90.266703 
C 100.82349 90.714417 101.430806 90.965976 102.06397 90.965976 
z
" clip-path="url(#pabff2c554f)" style="fill: #1f77b4; fill-opacity: 0.9"/>
    <path d="M 221.915073 113.337753 
C 222.660713 113.337753 223.375915 113.041507 223.903162 112.514259 
C 224.43041 111.987012 224.726656 111.27181 224.726656 110.52617 
C 224.726656 109.780529 224.43041 109.065327 223.903162 108.53808 
C 223.375915 108.010832 222.660713 107.714586 221.915073 107.714586 
C 221.169432 107.714586 220.454231 108.010832 219.926983 108.53808 
C 219.399736 109.065327 219.103489 109.780529 219.103489 110.52617 
C 219.103489 111.27181 219.399736 111.987012 219.926983 112.514259 
C 220.454231 113.041507 221.169432 113.337753 221.915073 113.337753 
z
" clip-path="url(#pabff2c554f)" style="fill: #1f77b4; fill-opacity: 0.9"/>
    <path d="M 102.06397 139.380349 
C 103.8956 139.380349 105.652458 138.652635 106.947616 137.357477 
C 108.242774 136.062319 108.970489 134.305461 108.970489 132.47383 
C 108.970489 130.6422 108.242774 128.885342 106.947616 127.590184 
C 105.652458 126.295026 103.8956 125.567312 102.06397 125.567312 
C 100.23234 125.567312 98.475482 126.295026 97.180324 127.590184 
C 95.885166 128.885342 95.157451 130.6422 95.157451 132.47383 
C 95.157451 134.305461 95.885166 136.062319 97.180324 137.357477 
C 98.475482 138.652635 100.23234 139.380349 102.06397 139.380349 
z
" clip-path="url(#pabff2c554f)" style="fill: #1f77b4; fill-opacity: 0.9"/>
    <path d="M 231.134388 156.400127 
C 231.659129 156.400127 232.162448 156.191646 232.533495 155.820598 
C 232.904543 155.449551 233.113024 154.946232 233.113024 154.421491 
C 233.113024 153.896751 232.904543 153.393432 232.533495 153.022385 
C 232.162448 152.651337 231.659129 152.442856 231.134388 152.442856 
C 230.609648 152.442856 230.106329 152.651337 229.735281 153.022385 
C 229.364234 153.393432 229.155752 153.896751 229.155752 154.421491 
C 229.155752 154.946232 229.364234 155.449551 229.735281 155.820598 
C 230.106329 156.191646 230.609648 156.400127 231.134388 156.400127 
z
" clip-path="url(#pabff2c554f)" style="fill: #1f77b4; fill-opacity: 0.9"/>
    <path d="M 203.476441 156.262687 
C 203.964732 156.262687 204.433089 156.068687 204.778363 155.723413 
C 205.123637 155.378139 205.317637 154.909782 205.317637 154.421491 
C 205.317637 153.933201 205.123637 153.464843 204.778363 153.11957 
C 204.433089 152.774296 203.964732 152.580296 203.476441 152.580296 
C 202.988151 152.580296 202.519793 152.774296 202.17452 153.11957 
C 201.829246 153.464843 201.635246 153.933201 201.635246 154.421491 
C 201.635246 154.909782 201.829246 155.378139 202.17452 155.723413 
C 202.519793 156.068687 202.988151 156.262687 203.476441 156.262687 
z
" clip-path="url(#pabff2c554f)" style="fill: #1f77b4; fill-opacity: 0.9"/>
    <path d="M 240.353704 156.114123 
C 240.802595 156.114123 241.233161 155.935776 241.550575 155.618362 
C 241.867989 155.300948 242.046335 154.870382 242.046335 154.421491 
C 242.046335 153.9726 241.867989 153.542034 241.550575 153.224621 
C 241.233161 152.907207 240.802595 152.72886 240.353704 152.72886 
C 239.904813 152.72886 239.474247 152.907207 239.156833 153.224621 
C 238.839419 153.542034 238.661073 153.9726 238.661073 154.421491 
C 238.661073 154.870382 238.839419 155.300948 239.156833 155.618362 
C 239.474247 155.935776 239.904813 156.114123 240.353704 156.114123 
z
" clip-path="url(#pabff2c554f)" style="fill: #1f77b4; fill-opacity: 0.9"/>
    <path d="M 83.625339 156.318858 
C 84.128526 156.318858 84.611172 156.11894 84.966979 155.763132 
C 85.322787 155.407325 85.522705 154.924679 85.522705 154.421491 
C 85.522705 153.918304 85.322787 153.435658 84.966979 153.079851 
C 84.611172 152.724043 84.128526 152.524125 83.625339 152.524125 
C 83.122151 152.524125 82.639505 152.724043 82.283698 153.079851 
C 81.927891 153.435658 81.727972 153.918304 81.727972 154.421491 
C 81.727972 154.924679 81.927891 155.407325 82.283698 155.763132 
C 82.639505 156.11894 83.122151 156.318858 83.625339 156.318858 
z
" clip-path="url(#pabff2c554f)" style="fill: #1f77b4; fill-opacity: 0.9"/>
    <path d="M 157.379863 155.844516 
C 157.757254 155.844516 158.119239 155.694577 158.386094 155.427722 
C 158.652949 155.160867 158.802888 154.798882 158.802888 154.421491 
C 158.802888 154.044101 158.652949 153.682116 158.386094 153.415261 
C 158.119239 153.148405 157.757254 152.998466 157.379863 152.998466 
C 157.002473 152.998466 156.640488 153.148405 156.373633 153.415261 
C 156.106777 153.682116 155.956838 154.044101 155.956838 154.421491 
C 155.956838 154.798882 156.106777 155.160867 156.373633 155.427722 
C 156.640488 155.694577 157.002473 155.844516 157.379863 155.844516 
z
" clip-path="url(#pabff2c554f)" style="fill: #1f77b4; fill-opacity: 0.9"/>
    <path d="M 148.160548 156.577877 
C 148.732428 156.577877 149.280963 156.350667 149.685343 155.946286 
C 150.089723 155.541906 150.316934 154.993372 150.316934 154.421491 
C 150.316934 153.849611 150.089723 153.301077 149.685343 152.896696 
C 149.280963 152.492316 148.732428 152.265106 148.160548 152.265106 
C 147.588668 152.265106 147.040133 152.492316 146.635753 152.896696 
C 146.231372 153.301077 146.004162 153.849611 146.004162 154.421491 
C 146.004162 154.993372 146.231372 155.541906 146.635753 155.946286 
C 147.040133 156.350667 147.588668 156.577877 148.160548 156.577877 
z
" clip-path="url(#pabff2c554f)" style="fill: #1f77b4; fill-opacity: 0.9"/>
    <path d="M 433.959331 156.114123 
C 434.408222 156.114123 434.838788 155.935776 435.156202 155.618362 
C 435.473616 155.300948 435.651962 154.870382 435.651962 154.421491 
C 435.651962 153.9726 435.473616 153.542034 435.156202 153.224621 
C 434.838788 152.907207 434.408222 152.72886 433.959331 152.72886 
C 433.51044 152.72886 433.079874 152.907207 432.76246 153.224621 
C 432.445046 153.542034 432.2667 153.9726 432.2667 154.421491 
C 432.2667 154.870382 432.445046 155.300948 432.76246 155.618362 
C 433.079874 155.935776 433.51044 156.114123 433.959331 156.114123 
z
" clip-path="url(#pabff2c554f)" style="fill: #1f77b4; fill-opacity: 0.9"/>
    <path d="M 323.327544 156.719316 
C 323.936934 156.719316 324.521448 156.477203 324.952352 156.046299 
C 325.383256 155.615395 325.625369 155.030882 325.625369 154.421491 
C 325.625369 153.812101 325.383256 153.227588 324.952352 152.796684 
C 324.521448 152.36578 323.936934 152.123666 323.327544 152.123666 
C 322.718154 152.123666 322.13364 152.36578 321.702736 152.796684 
C 321.271832 153.227588 321.029719 153.812101 321.029719 154.421491 
C 321.029719 155.030882 321.271832 155.615395 321.702736 156.046299 
C 322.13364 156.477203 322.718154 156.719316 323.327544 156.719316 
z
" clip-path="url(#pabff2c554f)" style="fill: #1f77b4; fill-opacity: 0.9"/>
    <path d="M 65.186707 156.082816 
C 65.627296 156.082816 66.049898 155.907769 66.361441 155.596225 
C 66.672985 155.284682 66.848032 154.86208 66.848032 154.421491 
C 66.848032 153.980903 66.672985 153.558301 66.361441 153.246757 
C 66.049898 152.935214 65.627296 152.760167 65.186707 152.760167 
C 64.746119 152.760167 64.323517 152.935214 64.011973 153.246757 
C 63.70043 153.558301 63.525383 153.980903 63.525383 154.421491 
C 63.525383 154.86208 63.70043 155.284682 64.011973 155.596225 
C 64.323517 155.907769 64.746119 156.082816 65.186707 156.082816 
z
" clip-path="url(#pabff2c554f)" style="fill: #1f77b4; fill-opacity: 0.9"/>
    <path d="M 424.740016 156.175059 
C 425.205067 156.175059 425.651134 155.990292 425.979975 155.661451 
C 426.308817 155.33261 426.493583 154.886543 426.493583 154.421491 
C 426.493583 153.95644 426.308817 153.510373 425.979975 153.181532 
C 425.651134 152.852691 425.205067 152.667924 424.740016 152.667924 
C 424.274964 152.667924 423.828897 152.852691 423.500056 153.181532 
C 423.171215 153.510373 422.986448 153.95644 422.986448 154.421491 
C 422.986448 154.886543 423.171215 155.33261 423.500056 155.661451 
C 423.828897 155.990292 424.274964 156.175059 424.740016 156.175059 
z
" clip-path="url(#pabff2c554f)" style="fill: #1f77b4; fill-opacity: 0.9"/>
    <path d="M 286.450282 156.14486 
C 286.907324 156.14486 287.345709 155.963275 287.668888 155.640097 
C 287.992066 155.316919 288.173651 154.878534 288.173651 154.421491 
C 288.173651 153.964449 287.992066 153.526064 287.668888 153.202886 
C 287.345709 152.879708 286.907324 152.698123 286.450282 152.698123 
C 285.993239 152.698123 285.554854 152.879708 285.231676 153.202886 
C 284.908498 153.526064 284.726913 153.964449 284.726913 154.421491 
C 284.726913 154.878534 284.908498 155.316919 285.231676 155.640097 
C 285.554854 155.963275 285.993239 156.14486 286.450282 156.14486 
z
" clip-path="url(#pabff2c554f)" style="fill: #1f77b4; fill-opacity: 0.9"/>
    <path d="M 387.862753 156.050909 
C 388.29488 156.050909 388.709366 155.879223 389.014925 155.573663 
C 389.320485 155.268104 389.49217 154.853618 389.49217 154.421491 
C 389.49217 153.989365 389.320485 153.574879 389.014925 153.26932 
C 388.709366 152.96376 388.29488 152.792074 387.862753 152.792074 
C 387.430627 152.792074 387.016141 152.96376 386.710581 153.26932 
C 386.405022 153.574879 386.233336 153.989365 386.233336 154.421491 
C 386.233336 154.853618 386.405022 155.268104 386.710581 155.573663 
C 387.016141 155.879223 387.430627 156.050909 387.862753 156.050909 
z
" clip-path="url(#pabff2c554f)" style="fill: #1f77b4; fill-opacity: 0.9"/>
    <path d="M 249.573019 156.14486 
C 250.030062 156.14486 250.468447 155.963275 250.791625 155.640097 
C 251.114803 155.316919 251.296388 154.878534 251.296388 154.421491 
C 251.296388 153.964449 251.114803 153.526064 250.791625 153.202886 
C 250.468447 152.879708 250.030062 152.698123 249.573019 152.698123 
C 249.115977 152.698123 248.677592 152.879708 248.354414 153.202886 
C 248.031236 153.526064 247.849651 153.964449 247.849651 154.421491 
C 247.849651 154.878534 248.031236 155.316919 248.354414 155.640097 
C 248.677592 155.963275 249.115977 156.14486 249.573019 156.14486 
z
" clip-path="url(#pabff2c554f)" style="fill: #1f77b4; fill-opacity: 0.9"/>
    <path d="M 221.915073 156.808959 
C 222.548236 156.808959 223.155553 156.5574 223.603267 156.109686 
C 224.050981 155.661971 224.30254 155.054655 224.30254 154.421491 
C 224.30254 153.788328 224.050981 153.181011 223.603267 152.733297 
C 223.155553 152.285583 222.548236 152.034024 221.915073 152.034024 
C 221.281909 152.034024 220.674593 152.285583 220.226878 152.733297 
C 219.779164 153.181011 219.527605 153.788328 219.527605 154.421491 
C 219.527605 155.054655 219.779164 155.661971 220.226878 156.109686 
C 220.674593 156.5574 221.281909 156.808959 221.915073 156.808959 
z
" clip-path="url(#pabff2c554f)" style="fill: #1f77b4; fill-opacity: 0.9"/>
    <path d="M 341.766175 156.426485 
C 342.297906 156.426485 342.80793 156.215226 343.18392 155.839236 
C 343.55991 155.463246 343.771169 154.953222 343.771169 154.421491 
C 343.771169 153.889761 343.55991 153.379737 343.18392 153.003747 
C 342.80793 152.627756 342.297906 152.416498 341.766175 152.416498 
C 341.234445 152.416498 340.724421 152.627756 340.348431 153.003747 
C 339.97244 153.379737 339.761182 153.889761 339.761182 154.421491 
C 339.761182 154.953222 339.97244 155.463246 340.348431 155.839236 
C 340.724421 156.215226 341.234445 156.426485 341.766175 156.426485 
z
" clip-path="url(#pabff2c554f)" style="fill: #1f77b4; fill-opacity: 0.9"/>
    <path d="M 360.204807 156.452501 
C 360.743437 156.452501 361.260078 156.238501 361.640947 155.857632 
C 362.021816 155.476763 362.235816 154.960121 362.235816 154.421491 
C 362.235816 153.882861 362.021816 153.36622 361.640947 152.985351 
C 361.260078 152.604482 360.743437 152.390482 360.204807 152.390482 
C 359.666176 152.390482 359.149535 152.604482 358.768666 152.985351 
C 358.387797 153.36622 358.173797 153.882861 358.173797 154.421491 
C 358.173797 154.960121 358.387797 155.476763 358.768666 155.857632 
C 359.149535 156.238501 359.666176 156.452501 360.204807 156.452501 
z
" clip-path="url(#pabff2c554f)" style="fill: #1f77b4; fill-opacity: 0.9"/>
    <path d="M 212.695757 156.082816 
C 213.136345 156.082816 213.558948 155.907769 213.870491 155.596225 
C 214.182034 155.284682 214.357082 154.86208 214.357082 154.421491 
C 214.357082 153.980903 214.182034 153.558301 213.870491 153.246757 
C 213.558948 152.935214 213.136345 152.760167 212.695757 152.760167 
C 212.255169 152.760167 211.832566 152.935214 211.521023 153.246757 
C 211.20948 153.558301 211.034432 153.980903 211.034432 154.421491 
C 211.034432 154.86208 211.20948 155.284682 211.521023 155.596225 
C 211.832566 155.907769 212.255169 156.082816 212.695757 156.082816 
z
" clip-path="url(#pabff2c554f)" style="fill: #1f77b4; fill-opacity: 0.9"/>
    <path d="M 350.985491 156.233948 
C 351.46616 156.233948 351.927207 156.042976 352.267091 155.703092 
C 352.606976 155.363208 352.797948 154.902161 352.797948 154.421491 
C 352.797948 153.940822 352.606976 153.479775 352.267091 153.139891 
C 351.927207 152.800006 351.46616 152.609035 350.985491 152.609035 
C 350.504822 152.609035 350.043775 152.800006 349.70389 153.139891 
C 349.364006 153.479775 349.173034 153.940822 349.173034 154.421491 
C 349.173034 154.902161 349.364006 155.363208 349.70389 155.703092 
C 350.043775 156.042976 350.504822 156.233948 350.985491 156.233948 
z
" clip-path="url(#pabff2c554f)" style="fill: #1f77b4; fill-opacity: 0.9"/>
    <path d="M 314.108229 156.114123 
C 314.55712 156.114123 314.987686 155.935776 315.305099 155.618362 
C 315.622513 155.300948 315.80086 154.870382 315.80086 154.421491 
C 315.80086 153.9726 315.622513 153.542034 315.305099 153.224621 
C 314.987686 152.907207 314.55712 152.72886 314.108229 152.72886 
C 313.659338 152.72886 313.228771 152.907207 312.911358 153.224621 
C 312.593944 153.542034 312.415597 153.9726 312.415597 154.421491 
C 312.415597 154.870382 312.593944 155.300948 312.911358 155.618362 
C 313.228771 155.935776 313.659338 156.114123 314.108229 156.114123 
z
" clip-path="url(#pabff2c554f)" style="fill: #1f77b4; fill-opacity: 0.9"/>
    <path d="M 378.643438 156.400127 
C 379.168178 156.400127 379.671497 156.191646 380.042545 155.820598 
C 380.413592 155.449551 380.622074 154.946232 380.622074 154.421491 
C 380.622074 153.896751 380.413592 153.393432 380.042545 153.022385 
C 379.671497 152.651337 379.168178 152.442856 378.643438 152.442856 
C 378.118697 152.442856 377.615378 152.651337 377.244331 153.022385 
C 376.873283 153.393432 376.664802 153.896751 376.664802 154.421491 
C 376.664802 154.946232 376.873283 155.449551 377.244331 155.820598 
C 377.615378 156.191646 378.118697 156.400127 378.643438 156.400127 
z
" clip-path="url(#pabff2c554f)" style="fill: #1f77b4; fill-opacity: 0.9"/>
    <path d="M 111.283285 156.175059 
C 111.748337 156.175059 112.194404 155.990292 112.523245 155.661451 
C 112.852086 155.33261 113.036853 154.886543 113.036853 154.421491 
C 113.036853 153.95644 112.852086 153.510373 112.523245 153.181532 
C 112.194404 152.852691 111.748337 152.667924 111.283285 152.667924 
C 110.818234 152.667924 110.372167 152.852691 110.043326 153.181532 
C 109.714485 153.510373 109.529718 153.95644 109.529718 154.421491 
C 109.529718 154.886543 109.714485 155.33261 110.043326 155.661451 
C 110.372167 155.990292 110.818234 156.175059 111.283285 156.175059 
z
" clip-path="url(#pabff2c554f)" style="fill: #1f77b4; fill-opacity: 0.9"/>
    <path d="M 258.792335 156.452501 
C 259.330965 156.452501 259.847607 156.238501 260.228476 155.857632 
C 260.609345 155.476763 260.823345 154.960121 260.823345 154.421491 
C 260.823345 153.882861 260.609345 153.36622 260.228476 152.985351 
C 259.847607 152.604482 259.330965 152.390482 258.792335 152.390482 
C 258.253705 152.390482 257.737063 152.604482 257.356194 152.985351 
C 256.975325 153.36622 256.761325 153.882861 256.761325 154.421491 
C 256.761325 154.960121 256.975325 155.476763 257.356194 155.857632 
C 257.737063 156.238501 258.253705 156.452501 258.792335 156.452501 
z
" clip-path="url(#pabff2c554f)" style="fill: #1f77b4; fill-opacity: 0.9"/>
    <path d="M 406.301384 156.262687 
C 406.789675 156.262687 407.258032 156.068687 407.603306 155.723413 
C 407.94858 155.378139 408.14258 154.909782 408.14258 154.421491 
C 408.14258 153.933201 407.94858 153.464843 407.603306 153.11957 
C 407.258032 152.774296 406.789675 152.580296 406.301384 152.580296 
C 405.813094 152.580296 405.344736 152.774296 404.999463 153.11957 
C 404.654189 153.464843 404.460189 153.933201 404.460189 154.421491 
C 404.460189 154.909782 404.654189 155.378139 404.999463 155.723413 
C 405.344736 156.068687 405.813094 156.262687 406.301384 156.262687 
z
" clip-path="url(#pabff2c554f)" style="fill: #1f77b4; fill-opacity: 0.9"/>
    <path d="M 92.844654 156.14486 
C 93.301697 156.14486 93.740082 155.963275 94.06326 155.640097 
C 94.386438 155.316919 94.568023 154.878534 94.568023 154.421491 
C 94.568023 153.964449 94.386438 153.526064 94.06326 153.202886 
C 93.740082 152.879708 93.301697 152.698123 92.844654 152.698123 
C 92.387612 152.698123 91.949227 152.879708 91.626048 153.202886 
C 91.30287 153.526064 91.121285 153.964449 91.121285 154.421491 
C 91.121285 154.878534 91.30287 155.316919 91.626048 155.640097 
C 91.949227 155.963275 92.387612 156.14486 92.844654 156.14486 
z
" clip-path="url(#pabff2c554f)" style="fill: #1f77b4; fill-opacity: 0.9"/>
    <path d="M 102.06397 178.12272 
C 102.529021 178.12272 102.975088 177.937953 103.30393 177.609112 
C 103.632771 177.280271 103.817538 176.834204 103.817538 176.369152 
C 103.817538 175.904101 103.632771 175.458034 103.30393 175.129193 
C 102.975088 174.800352 102.529021 174.615585 102.06397 174.615585 
C 101.598918 174.615585 101.152851 174.800352 100.82401 175.129193 
C 100.495169 175.458034 100.310402 175.904101 100.310402 176.369152 
C 100.310402 176.834204 100.495169 177.280271 100.82401 177.609112 
C 101.152851 177.937953 101.598918 178.12272 102.06397 178.12272 
z
" clip-path="url(#pabff2c554f)" style="fill: #1f77b4; fill-opacity: 0.9"/>
    <path d="M 175.818495 200.347823 
C 176.357125 200.347823 176.873766 200.133823 177.254635 199.752954 
C 177.635504 199.372085 177.849504 198.855443 177.849504 198.316813 
C 177.849504 197.778183 177.635504 197.261542 177.254635 196.880673 
C 176.873766 196.499804 176.357125 196.285804 175.818495 196.285804 
C 175.279865 196.285804 174.763223 196.499804 174.382354 196.880673 
C 174.001485 197.261542 173.787485 197.778183 173.787485 198.316813 
C 173.787485 198.855443 174.001485 199.372085 174.382354 199.752954 
C 174.763223 200.133823 175.279865 200.347823 175.818495 200.347823 
z
" clip-path="url(#pabff2c554f)" style="fill: #1f77b4; fill-opacity: 0.9"/>
    <path d="M 231.134388 222.562299 
C 231.743779 222.562299 232.328292 222.320186 232.759196 221.889282 
C 233.1901 221.458378 233.432213 220.873865 233.432213 220.264474 
C 233.432213 219.655084 233.1901 219.070571 232.759196 218.639667 
C 232.328292 218.208763 231.743779 217.966649 231.134388 217.966649 
C 230.524998 217.966649 229.940485 218.208763 229.50958 218.639667 
C 229.078676 219.070571 228.836563 219.655084 228.836563 220.264474 
C 228.836563 220.873865 229.078676 221.458378 229.50958 221.889282 
C 229.940485 222.320186 230.524998 222.562299 231.134388 222.562299 
z
" clip-path="url(#pabff2c554f)" style="fill: #1f77b4; fill-opacity: 0.9"/>
    <path d="M 175.818495 222.51614 
C 176.415643 222.51614 176.988415 222.278891 177.410663 221.856643 
C 177.832911 221.434395 178.070161 220.861623 178.070161 220.264474 
C 178.070161 219.667325 177.832911 219.094554 177.410663 218.672306 
C 176.988415 218.250058 176.415643 218.012808 175.818495 218.012808 
C 175.221346 218.012808 174.648574 218.250058 174.226326 218.672306 
C 173.804078 219.094554 173.566829 219.667325 173.566829 220.264474 
C 173.566829 220.861623 173.804078 221.434395 174.226326 221.856643 
C 174.648574 222.278891 175.221346 222.51614 175.818495 222.51614 
z
" clip-path="url(#pabff2c554f)" style="fill: #1f77b4; fill-opacity: 0.9"/>
    <path d="M 268.011651 222.585035 
C 268.62707 222.585035 269.217367 222.340526 269.652534 221.905358 
C 270.087702 221.470191 270.332211 220.879894 270.332211 220.264474 
C 270.332211 219.649055 270.087702 219.058758 269.652534 218.62359 
C 269.217367 218.188423 268.62707 217.943914 268.011651 217.943914 
C 267.396231 217.943914 266.805934 218.188423 266.370767 218.62359 
C 265.935599 219.058758 265.69109 219.649055 265.69109 220.264474 
C 265.69109 220.879894 265.935599 221.470191 266.370767 221.905358 
C 266.805934 222.340526 267.396231 222.585035 268.011651 222.585035 
z
" clip-path="url(#pabff2c554f)" style="fill: #1f77b4; fill-opacity: 0.9"/>
    <path d="M 138.941232 222.133966 
C 139.437027 222.133966 139.912583 221.936985 140.263163 221.586405 
C 140.613743 221.235825 140.810724 220.760269 140.810724 220.264474 
C 140.810724 219.768679 140.613743 219.293124 140.263163 218.942544 
C 139.912583 218.591964 139.437027 218.394982 138.941232 218.394982 
C 138.445437 218.394982 137.969882 218.591964 137.619302 218.942544 
C 137.268722 219.293124 137.07174 219.768679 137.07174 220.264474 
C 137.07174 220.760269 137.268722 221.235825 137.619302 221.586405 
C 137.969882 221.936985 138.445437 222.133966 138.941232 222.133966 
z
" clip-path="url(#pabff2c554f)" style="fill: #1f77b4; fill-opacity: 0.9"/>
    <path d="M 286.450282 221.687499 
C 286.827672 221.687499 287.189657 221.53756 287.456512 221.270705 
C 287.723368 221.003849 287.873307 220.641865 287.873307 220.264474 
C 287.873307 219.887084 287.723368 219.525099 287.456512 219.258244 
C 287.189657 218.991388 286.827672 218.841449 286.450282 218.841449 
C 286.072891 218.841449 285.710907 218.991388 285.444051 219.258244 
C 285.177196 219.525099 285.027257 219.887084 285.027257 220.264474 
C 285.027257 220.641865 285.177196 221.003849 285.444051 221.270705 
C 285.710907 221.53756 286.072891 221.687499 286.450282 221.687499 
z
" clip-path="url(#pabff2c554f)" style="fill: #1f77b4; fill-opacity: 0.9"/>
    <path d="M 221.915073 222.396375 
C 222.480459 222.396375 223.022765 222.171744 223.422554 221.771956 
C 223.822343 221.372167 224.046973 220.829861 224.046973 220.264474 
C 224.046973 219.699088 223.822343 219.156782 223.422554 218.756993 
C 223.022765 218.357204 222.480459 218.132574 221.915073 218.132574 
C 221.349686 218.132574 220.80738 218.357204 220.407591 218.756993 
C 220.007803 219.156782 219.783172 219.699088 219.783172 220.264474 
C 219.783172 220.829861 220.007803 221.372167 220.407591 221.771956 
C 220.80738 222.171744 221.349686 222.396375 221.915073 222.396375 
z
" clip-path="url(#pabff2c554f)" style="fill: #1f77b4; fill-opacity: 0.9"/>
    <path d="M 341.766175 222.161841 
C 342.269363 222.161841 342.752009 221.961922 343.107816 221.606115 
C 343.463623 221.250308 343.663542 220.767662 343.663542 220.264474 
C 343.663542 219.761287 343.463623 219.278641 343.107816 218.922834 
C 342.752009 218.567026 342.269363 218.367108 341.766175 218.367108 
C 341.262988 218.367108 340.780342 218.567026 340.424535 218.922834 
C 340.068727 219.278641 339.868809 219.761287 339.868809 220.264474 
C 339.868809 220.767662 340.068727 221.250308 340.424535 221.606115 
C 340.780342 221.961922 341.262988 222.161841 341.766175 222.161841 
z
" clip-path="url(#pabff2c554f)" style="fill: #1f77b4; fill-opacity: 0.9"/>
    <path d="M 360.204807 222.161841 
C 360.707994 222.161841 361.19064 221.961922 361.546447 221.606115 
C 361.902255 221.250308 362.102173 220.767662 362.102173 220.264474 
C 362.102173 219.761287 361.902255 219.278641 361.546447 218.922834 
C 361.19064 218.567026 360.707994 218.367108 360.204807 218.367108 
C 359.701619 218.367108 359.218973 218.567026 358.863166 218.922834 
C 358.507358 219.278641 358.30744 219.761287 358.30744 220.264474 
C 358.30744 220.767662 358.507358 221.250308 358.863166 221.606115 
C 359.218973 221.961922 359.701619 222.161841 360.204807 222.161841 
z
" clip-path="url(#pabff2c554f)" style="fill: #1f77b4; fill-opacity: 0.9"/>
    <path d="M 111.283285 222.842264 
C 111.966923 222.842264 112.622653 222.570652 113.106058 222.087247 
C 113.589463 221.603842 113.861075 220.948112 113.861075 220.264474 
C 113.861075 219.580836 113.589463 218.925107 113.106058 218.441702 
C 112.622653 217.958297 111.966923 217.686685 111.283285 217.686685 
C 110.599648 217.686685 109.943918 217.958297 109.460513 218.441702 
C 108.977108 218.925107 108.705496 219.580836 108.705496 220.264474 
C 108.705496 220.948112 108.977108 221.603842 109.460513 222.087247 
C 109.943918 222.570652 110.599648 222.842264 111.283285 222.842264 
z
" clip-path="url(#pabff2c554f)" style="fill: #1f77b4; fill-opacity: 0.9"/>
    <path d="M 397.082069 223.256965 
C 397.875687 223.256965 398.636907 222.941657 399.198079 222.380485 
C 399.759252 221.819312 400.074559 221.058092 400.074559 220.264474 
C 400.074559 219.470857 399.759252 218.709636 399.198079 218.148464 
C 398.636907 217.587291 397.875687 217.271984 397.082069 217.271984 
C 396.288451 217.271984 395.527231 217.587291 394.966058 218.148464 
C 394.404886 218.709636 394.089578 219.470857 394.089578 220.264474 
C 394.089578 221.058092 394.404886 221.819312 394.966058 222.380485 
C 395.527231 222.941657 396.288451 223.256965 397.082069 223.256965 
z
" clip-path="url(#pabff2c554f)" style="fill: #1f77b4; fill-opacity: 0.9"/>
    <path d="M 129.721917 222.396375 
C 130.287303 222.396375 130.829609 222.171744 131.229398 221.771956 
C 131.629187 221.372167 131.853817 220.829861 131.853817 220.264474 
C 131.853817 219.699088 131.629187 219.156782 131.229398 218.756993 
C 130.829609 218.357204 130.287303 218.132574 129.721917 218.132574 
C 129.15653 218.132574 128.614224 218.357204 128.214435 218.756993 
C 127.814647 219.156782 127.590016 219.699088 127.590016 220.264474 
C 127.590016 220.829861 127.814647 221.372167 128.214435 221.771956 
C 128.614224 222.171744 129.15653 222.396375 129.721917 222.396375 
z
" clip-path="url(#pabff2c554f)" style="fill: #1f77b4; fill-opacity: 0.9"/>
   </g>
   <g id="PathCollection_2"/>
   <g id="PathCollection_3"/>
   <g id="PathCollection_4"/>
   <g id="matplotlib.axis_1">
    <g id="xtick_1">
     <g id="line2d_1">
      <defs>
       <path id="m3321f8d139" d="M 0 0 
L 0 2.5 
" style="stroke: #000000; stroke-width: 0.6"/>
      </defs>
      <g>
       <use xlink:href="#m3321f8d139" x="65.186707" y="233.433071" style="stroke: #000000; stroke-width: 0.6"/>
      </g>
     </g>
     <g id="text_1">
      <text style="font-size: 5.5px; font-family: 'Arial', 'Helvetica', 'DejaVu Sans', sans-serif" transform="translate(66.608543 273.09268) rotate(-90)">adipose tissue</text>
     </g>
    </g>
    <g id="xtick_2">
     <g id="line2d_2">
      <g>
       <use xlink:href="#m3321f8d139" x="74.406023" y="233.433071" style="stroke: #000000; stroke-width: 0.6"/>
      </g>
     </g>
     <g id="text_2">
      <text style="font-size: 5.5px; font-family: 'Arial', 'Helvetica', 'DejaVu Sans', sans-serif" transform="translate(75.795632 271.263071) rotate(-90)">adrenal gland</text>
     </g>
    </g>
    <g id="xtick_3">
     <g id="line2d_3">
      <g>
       <use xlink:href="#m3321f8d139" x="83.625339" y="233.433071" style="stroke: #000000; stroke-width: 0.6"/>
      </g>
     </g>
     <g id="text_3">
      <text style="font-size: 5.5px; font-family: 'Arial', 'Helvetica', 'DejaVu Sans', sans-serif" transform="translate(85.047175 251.389165) rotate(-90)">blood</text>
     </g>
    </g>
    <g id="xtick_4">
     <g id="line2d_4">
      <g>
       <use xlink:href="#m3321f8d139" x="92.844654" y="233.433071" style="stroke: #000000; stroke-width: 0.6"/>
      </g>
     </g>
     <g id="text_4">
      <text style="font-size: 5.5px; font-family: 'Arial', 'Helvetica', 'DejaVu Sans', sans-serif" transform="translate(94.26649 281.04104) rotate(-90)">blood vasculature</text>
     </g>
    </g>
    <g id="xtick_5">
     <g id="line2d_5">
      <g>
       <use xlink:href="#m3321f8d139" x="102.06397" y="233.433071" style="stroke: #000000; stroke-width: 0.6"/>
      </g>
     </g>
     <g id="text_5">
      <text style="font-size: 5.5px; font-family: 'Arial', 'Helvetica', 'DejaVu Sans', sans-serif" transform="translate(103.453579 267.283305) rotate(-90)">body proper</text>
     </g>
    </g>
    <g id="xtick_6">
     <g id="line2d_6">
      <g>
       <use xlink:href="#m3321f8d139" x="111.283285" y="233.433071" style="stroke: #000000; stroke-width: 0.6"/>
      </g>
     </g>
     <g id="text_6">
      <text style="font-size: 5.5px; font-family: 'Arial', 'Helvetica', 'DejaVu Sans', sans-serif" transform="translate(112.705121 270.028149) rotate(-90)">bone marrow</text>
     </g>
    </g>
    <g id="xtick_7">
     <g id="line2d_7">
      <g>
       <use xlink:href="#m3321f8d139" x="120.502601" y="233.433071" style="stroke: #000000; stroke-width: 0.6"/>
      </g>
     </g>
     <g id="text_7">
      <text style="font-size: 5.5px; font-family: 'Arial', 'Helvetica', 'DejaVu Sans', sans-serif" transform="translate(121.924437 250.161977) rotate(-90)">brain</text>
     </g>
    </g>
    <g id="xtick_8">
     <g id="line2d_8">
      <g>
       <use xlink:href="#m3321f8d139" x="129.721917" y="233.433071" style="stroke: #000000; stroke-width: 0.6"/>
      </g>
     </g>
     <g id="text_8">
      <text style="font-size: 5.5px; font-family: 'Arial', 'Helvetica', 'DejaVu Sans', sans-serif" transform="translate(131.143753 257.19768) rotate(-90)">decidua</text>
     </g>
    </g>
    <g id="xtick_9">
     <g id="line2d_9">
      <g>
       <use xlink:href="#m3321f8d139" x="138.941232" y="233.433071" style="stroke: #000000; stroke-width: 0.6"/>
      </g>
     </g>
     <g id="text_9">
      <text style="font-size: 5.5px; font-family: 'Arial', 'Helvetica', 'DejaVu Sans', sans-serif" transform="translate(140.330842 264.84268) rotate(-90)">esophagus</text>
     </g>
    </g>
    <g id="xtick_10">
     <g id="line2d_10">
      <g>
       <use xlink:href="#m3321f8d139" x="148.160548" y="233.433071" style="stroke: #000000; stroke-width: 0.6"/>
      </g>
     </g>
     <g id="text_10">
      <text style="font-size: 5.5px; font-family: 'Arial', 'Helvetica', 'DejaVu Sans', sans-serif" transform="translate(149.517931 246.800102) rotate(-90)">eye</text>
     </g>
    </g>
    <g id="xtick_11">
     <g id="line2d_11">
      <g>
       <use xlink:href="#m3321f8d139" x="157.379863" y="233.433071" style="stroke: #000000; stroke-width: 0.6"/>
      </g>
     </g>
     <g id="text_11">
      <text style="font-size: 5.5px; font-family: 'Arial', 'Helvetica', 'DejaVu Sans', sans-serif" transform="translate(158.801699 250.467915) rotate(-90)">heart</text>
     </g>
    </g>
    <g id="xtick_12">
     <g id="line2d_12">
      <g>
       <use xlink:href="#m3321f8d139" x="166.599179" y="233.433071" style="stroke: #000000; stroke-width: 0.6"/>
      </g>
     </g>
     <g id="text_12">
      <text style="font-size: 5.5px; font-family: 'Arial', 'Helvetica', 'DejaVu Sans', sans-serif" transform="translate(168.054531 293.570727) rotate(-90)">hippocampal formation</text>
     </g>
    </g>
    <g id="xtick_13">
     <g id="line2d_13">
      <g>
       <use xlink:href="#m3321f8d139" x="175.818495" y="233.433071" style="stroke: #000000; stroke-width: 0.6"/>
      </g>
     </g>
     <g id="text_13">
      <text style="font-size: 5.5px; font-family: 'Arial', 'Helvetica', 'DejaVu Sans', sans-serif" transform="translate(177.240331 258.417133) rotate(-90)">intestine</text>
     </g>
    </g>
    <g id="xtick_14">
     <g id="line2d_14">
      <g>
       <use xlink:href="#m3321f8d139" x="185.03781" y="233.433071" style="stroke: #000000; stroke-width: 0.6"/>
      </g>
     </g>
     <g id="text_14">
      <text style="font-size: 5.5px; font-family: 'Arial', 'Helvetica', 'DejaVu Sans', sans-serif" transform="translate(186.460935 284.405493) rotate(-90)">islet of Langerhans</text>
     </g>
    </g>
    <g id="xtick_15">
     <g id="line2d_15">
      <g>
       <use xlink:href="#m3321f8d139" x="194.257126" y="233.433071" style="stroke: #000000; stroke-width: 0.6"/>
      </g>
     </g>
     <g id="text_15">
      <text style="font-size: 5.5px; font-family: 'Arial', 'Helvetica', 'DejaVu Sans', sans-serif" transform="translate(195.646735 253.830649) rotate(-90)">kidney</text>
     </g>
    </g>
    <g id="xtick_16">
     <g id="line2d_16">
      <g>
       <use xlink:href="#m3321f8d139" x="203.476441" y="233.433071" style="stroke: #000000; stroke-width: 0.6"/>
      </g>
     </g>
     <g id="text_16">
      <text style="font-size: 5.5px; font-family: 'Arial', 'Helvetica', 'DejaVu Sans', sans-serif" transform="translate(204.866051 272.174008) rotate(-90)">large intestine</text>
     </g>
    </g>
    <g id="xtick_17">
     <g id="line2d_17">
      <g>
       <use xlink:href="#m3321f8d139" x="212.695757" y="233.433071" style="stroke: #000000; stroke-width: 0.6"/>
      </g>
     </g>
     <g id="text_17">
      <text style="font-size: 5.5px; font-family: 'Arial', 'Helvetica', 'DejaVu Sans', sans-serif" transform="translate(214.117593 248.016977) rotate(-90)">liver</text>
     </g>
    </g>
    <g id="xtick_18">
     <g id="line2d_18">
      <g>
       <use xlink:href="#m3321f8d139" x="221.915073" y="233.433071" style="stroke: #000000; stroke-width: 0.6"/>
      </g>
     </g>
     <g id="text_18">
      <text style="font-size: 5.5px; font-family: 'Arial', 'Helvetica', 'DejaVu Sans', sans-serif" transform="translate(223.304682 248.330649) rotate(-90)">lung</text>
     </g>
    </g>
    <g id="xtick_19">
     <g id="line2d_19">
      <g>
       <use xlink:href="#m3321f8d139" x="231.134388" y="233.433071" style="stroke: #000000; stroke-width: 0.6"/>
      </g>
     </g>
     <g id="text_19">
      <text style="font-size: 5.5px; font-family: 'Arial', 'Helvetica', 'DejaVu Sans', sans-serif" transform="translate(232.523998 266.365493) rotate(-90)">lymph node</text>
     </g>
    </g>
    <g id="xtick_20">
     <g id="line2d_20">
      <g>
       <use xlink:href="#m3321f8d139" x="240.353704" y="233.433071" style="stroke: #000000; stroke-width: 0.6"/>
      </g>
     </g>
     <g id="text_20">
      <text style="font-size: 5.5px; font-family: 'Arial', 'Helvetica', 'DejaVu Sans', sans-serif" transform="translate(241.743313 300.590961) rotate(-90)">male reproductive system</text>
     </g>
    </g>
    <g id="xtick_21">
     <g id="line2d_21">
      <g>
       <use xlink:href="#m3321f8d139" x="249.573019" y="233.433071" style="stroke: #000000; stroke-width: 0.6"/>
      </g>
     </g>
     <g id="text_21">
      <text style="font-size: 5.5px; font-family: 'Arial', 'Helvetica', 'DejaVu Sans', sans-serif" transform="translate(250.962629 277.359477) rotate(-90)">mammary gland</text>
     </g>
    </g>
    <g id="xtick_22">
     <g id="line2d_22">
      <g>
       <use xlink:href="#m3321f8d139" x="258.792335" y="233.433071" style="stroke: #000000; stroke-width: 0.6"/>
      </g>
     </g>
     <g id="text_22">
      <text style="font-size: 5.5px; font-family: 'Arial', 'Helvetica', 'DejaVu Sans', sans-serif" transform="translate(260.181944 294.79018) rotate(-90)">mesenteric lymph node</text>
     </g>
    </g>
    <g id="xtick_23">
     <g id="line2d_23">
      <g>
       <use xlink:href="#m3321f8d139" x="268.011651" y="233.433071" style="stroke: #000000; stroke-width: 0.6"/>
      </g>
     </g>
     <g id="text_23">
      <text style="font-size: 5.5px; font-family: 'Arial', 'Helvetica', 'DejaVu Sans', sans-serif" transform="translate(269.40126 262.689946) rotate(-90)">oral cavity</text>
     </g>
    </g>
    <g id="xtick_24">
     <g id="line2d_24">
      <g>
       <use xlink:href="#m3321f8d139" x="277.230966" y="233.433071" style="stroke: #000000; stroke-width: 0.6"/>
      </g>
     </g>
     <g id="text_24">
      <text style="font-size: 5.5px; font-family: 'Arial', 'Helvetica', 'DejaVu Sans', sans-serif" transform="translate(278.652802 271.564711) rotate(-90)">palatine tonsil</text>
     </g>
    </g>
    <g id="xtick_25">
     <g id="line2d_25">
      <g>
       <use xlink:href="#m3321f8d139" x="286.450282" y="233.433071" style="stroke: #000000; stroke-width: 0.6"/>
      </g>
     </g>
     <g id="text_25">
      <text style="font-size: 5.5px; font-family: 'Arial', 'Helvetica', 'DejaVu Sans', sans-serif" transform="translate(287.872118 260.556977) rotate(-90)">pancreas</text>
     </g>
    </g>
    <g id="xtick_26">
     <g id="line2d_26">
      <g>
       <use xlink:href="#m3321f8d139" x="295.669597" y="233.433071" style="stroke: #000000; stroke-width: 0.6"/>
      </g>
     </g>
     <g id="text_26">
      <text style="font-size: 5.5px; font-family: 'Arial', 'Helvetica', 'DejaVu Sans', sans-serif" transform="translate(297.091433 258.725649) rotate(-90)">placenta</text>
     </g>
    </g>
    <g id="xtick_27">
     <g id="line2d_27">
      <g>
       <use xlink:href="#m3321f8d139" x="304.888913" y="233.433071" style="stroke: #000000; stroke-width: 0.6"/>
      </g>
     </g>
     <g id="text_27">
      <text style="font-size: 5.5px; font-family: 'Arial', 'Helvetica', 'DejaVu Sans', sans-serif" transform="translate(306.278522 288.35604) rotate(-90)">primary motor cortex</text>
     </g>
    </g>
    <g id="xtick_28">
     <g id="line2d_28">
      <g>
       <use xlink:href="#m3321f8d139" x="314.108229" y="233.433071" style="stroke: #000000; stroke-width: 0.6"/>
      </g>
     </g>
     <g id="text_28">
      <text style="font-size: 5.5px; font-family: 'Arial', 'Helvetica', 'DejaVu Sans', sans-serif" transform="translate(315.497838 272.788461) rotate(-90)">prostate gland</text>
     </g>
    </g>
    <g id="xtick_29">
     <g id="line2d_29">
      <g>
       <use xlink:href="#m3321f8d139" x="323.327544" y="233.433071" style="stroke: #000000; stroke-width: 0.6"/>
      </g>
     </g>
     <g id="text_29">
      <text style="font-size: 5.5px; font-family: 'Arial', 'Helvetica', 'DejaVu Sans', sans-serif" transform="translate(324.717154 282.856899) rotate(-90)">respiratory system</text>
     </g>
    </g>
    <g id="xtick_30">
     <g id="line2d_30">
      <g>
       <use xlink:href="#m3321f8d139" x="332.54686" y="233.433071" style="stroke: #000000; stroke-width: 0.6"/>
      </g>
     </g>
     <g id="text_30">
      <text style="font-size: 5.5px; font-family: 'Arial', 'Helvetica', 'DejaVu Sans', sans-serif" transform="translate(333.968696 291.424008) rotate(-90)">skeletal muscle tissue</text>
     </g>
    </g>
    <g id="xtick_31">
     <g id="line2d_31">
      <g>
       <use xlink:href="#m3321f8d139" x="341.766175" y="233.433071" style="stroke: #000000; stroke-width: 0.6"/>
      </g>
     </g>
     <g id="text_31">
      <text style="font-size: 5.5px; font-family: 'Arial', 'Helvetica', 'DejaVu Sans', sans-serif" transform="translate(343.1893 267.281586) rotate(-90)">skin of body</text>
     </g>
    </g>
    <g id="xtick_32">
     <g id="line2d_32">
      <g>
       <use xlink:href="#m3321f8d139" x="350.985491" y="233.433071" style="stroke: #000000; stroke-width: 0.6"/>
      </g>
     </g>
     <g id="text_32">
      <text style="font-size: 5.5px; font-family: 'Arial', 'Helvetica', 'DejaVu Sans', sans-serif" transform="translate(352.407327 272.779008) rotate(-90)">small intestine</text>
     </g>
    </g>
    <g id="xtick_33">
     <g id="line2d_33">
      <g>
       <use xlink:href="#m3321f8d139" x="360.204807" y="233.433071" style="stroke: #000000; stroke-width: 0.6"/>
      </g>
     </g>
     <g id="text_33">
      <text style="font-size: 5.5px; font-family: 'Arial', 'Helvetica', 'DejaVu Sans', sans-serif" transform="translate(361.626642 254.139165) rotate(-90)">spleen</text>
     </g>
    </g>
    <g id="xtick_34">
     <g id="line2d_34">
      <g>
       <use xlink:href="#m3321f8d139" x="369.424122" y="233.433071" style="stroke: #000000; stroke-width: 0.6"/>
      </g>
     </g>
     <g id="text_34">
      <text style="font-size: 5.5px; font-family: 'Arial', 'Helvetica', 'DejaVu Sans', sans-serif" transform="translate(370.845958 258.717915) rotate(-90)">stomach</text>
     </g>
    </g>
    <g id="xtick_35">
     <g id="line2d_35">
      <g>
       <use xlink:href="#m3321f8d139" x="378.643438" y="233.433071" style="stroke: #000000; stroke-width: 0.6"/>
      </g>
     </g>
     <g id="text_35">
      <text style="font-size: 5.5px; font-family: 'Arial', 'Helvetica', 'DejaVu Sans', sans-serif" transform="translate(380.033047 255.659399) rotate(-90)">thymus</text>
     </g>
    </g>
    <g id="xtick_36">
     <g id="line2d_36">
      <g>
       <use xlink:href="#m3321f8d139" x="387.862753" y="233.433071" style="stroke: #000000; stroke-width: 0.6"/>
      </g>
     </g>
     <g id="text_36">
      <text style="font-size: 5.5px; font-family: 'Arial', 'Helvetica', 'DejaVu Sans', sans-serif" transform="translate(389.220136 254.753618) rotate(-90)">tongue</text>
     </g>
    </g>
    <g id="xtick_37">
     <g id="line2d_37">
      <g>
       <use xlink:href="#m3321f8d139" x="397.082069" y="233.433071" style="stroke: #000000; stroke-width: 0.6"/>
      </g>
     </g>
     <g id="text_37">
      <text style="font-size: 5.5px; font-family: 'Arial', 'Helvetica', 'DejaVu Sans', sans-serif" transform="translate(398.503905 250.772133) rotate(-90)">tonsil</text>
     </g>
    </g>
    <g id="xtick_38">
     <g id="line2d_38">
      <g>
       <use xlink:href="#m3321f8d139" x="406.301384" y="233.433071" style="stroke: #000000; stroke-width: 0.6"/>
      </g>
     </g>
     <g id="text_38">
      <text style="font-size: 5.5px; font-family: 'Arial', 'Helvetica', 'DejaVu Sans', sans-serif" transform="translate(407.72322 256.27643) rotate(-90)">trachea</text>
     </g>
    </g>
    <g id="xtick_39">
     <g id="line2d_39">
      <g>
       <use xlink:href="#m3321f8d139" x="415.5207" y="233.433071" style="stroke: #000000; stroke-width: 0.6"/>
      </g>
     </g>
     <g id="text_39">
      <text style="font-size: 5.5px; font-family: 'Arial', 'Helvetica', 'DejaVu Sans', sans-serif" transform="translate(416.976052 266.669711) rotate(-90)">Unspecified</text>
     </g>
    </g>
    <g id="xtick_40">
     <g id="line2d_40">
      <g>
       <use xlink:href="#m3321f8d139" x="424.740016" y="233.433071" style="stroke: #000000; stroke-width: 0.6"/>
      </g>
     </g>
     <g id="text_40">
      <text style="font-size: 5.5px; font-family: 'Arial', 'Helvetica', 'DejaVu Sans', sans-serif" transform="translate(426.129625 274.617211) rotate(-90)">urinary bladder</text>
     </g>
    </g>
    <g id="xtick_41">
     <g id="line2d_41">
      <g>
       <use xlink:href="#m3321f8d139" x="433.959331" y="233.433071" style="stroke: #000000; stroke-width: 0.6"/>
      </g>
     </g>
     <g id="text_41">
      <text style="font-size: 5.5px; font-family: 'Arial', 'Helvetica', 'DejaVu Sans', sans-serif" transform="translate(435.381167 253.217915) rotate(-90)">uterus</text>
     </g>
    </g>
    <g id="xtick_42">
     <g id="line2d_42">
      <g>
       <use xlink:href="#m3321f8d139" x="443.178647" y="233.433071" style="stroke: #000000; stroke-width: 0.6"/>
      </g>
     </g>
     <g id="text_42">
      <text style="font-size: 5.5px; font-family: 'Arial', 'Helvetica', 'DejaVu Sans', sans-serif" transform="translate(444.600483 287.459711) rotate(-90)">white adipose tissue</text>
     </g>
    </g>
    <g id="text_43">
     <text style="font-size: 7px; font-family: 'Arial', 'Helvetica', 'DejaVu Sans', sans-serif; text-anchor: middle" x="254.182677" y="312.691118" transform="rotate(-0 254.182677 312.691118)">Organ</text>
    </g>
   </g>
   <g id="matplotlib.axis_2">
    <g id="ytick_1">
     <g id="line2d_43">
      <defs>
       <path id="m855dd9bd62" d="M 0 0 
L -2.5 0 
" style="stroke: #000000; stroke-width: 0.6"/>
      </defs>
      <g>
       <use xlink:href="#m855dd9bd62" x="59.655118" y="22.735526" style="stroke: #000000; stroke-width: 0.6"/>
      </g>
     </g>
     <g id="text_44">
      <text style="font-size: 6.5px; font-family: 'Arial', 'Helvetica', 'DejaVu Sans', sans-serif; text-anchor: end" x="55.155118" y="25.061815" transform="rotate(-0 55.155118 25.061815)">Azimuth</text>
     </g>
    </g>
    <g id="ytick_2">
     <g id="line2d_44">
      <g>
       <use xlink:href="#m855dd9bd62" x="59.655118" y="44.683187" style="stroke: #000000; stroke-width: 0.6"/>
      </g>
     </g>
     <g id="text_45">
      <text style="font-size: 6.5px; font-family: 'Arial', 'Helvetica', 'DejaVu Sans', sans-serif; text-anchor: end" x="55.155118" y="47.049085" transform="rotate(-0 55.155118 47.049085)">CellTypist</text>
     </g>
    </g>
    <g id="ytick_3">
     <g id="line2d_45">
      <g>
       <use xlink:href="#m855dd9bd62" x="59.655118" y="66.630848" style="stroke: #000000; stroke-width: 0.6"/>
      </g>
     </g>
     <g id="text_46">
      <text style="font-size: 6.5px; font-family: 'Arial', 'Helvetica', 'DejaVu Sans', sans-serif; text-anchor: end" x="55.155118" y="68.957137" transform="rotate(-0 55.155118 68.957137)">deepcelltypes</text>
     </g>
    </g>
    <g id="ytick_4">
     <g id="line2d_46">
      <g>
       <use xlink:href="#m855dd9bd62" x="59.655118" y="88.578509" style="stroke: #000000; stroke-width: 0.6"/>
      </g>
     </g>
     <g id="text_47">
      <text style="font-size: 6.5px; font-family: 'Arial', 'Helvetica', 'DejaVu Sans', sans-serif; text-anchor: end" x="55.155118" y="90.904798" transform="rotate(-0 55.155118 90.904798)">deepcelltypes-HuBMAP</text>
     </g>
    </g>
    <g id="ytick_5">
     <g id="line2d_47">
      <g>
       <use xlink:href="#m855dd9bd62" x="59.655118" y="110.52617" style="stroke: #000000; stroke-width: 0.6"/>
      </g>
     </g>
     <g id="text_48">
      <text style="font-size: 6.5px; font-family: 'Arial', 'Helvetica', 'DejaVu Sans', sans-serif; text-anchor: end" x="55.155118" y="112.852459" transform="rotate(-0 55.155118 112.852459)">FRMatch</text>
     </g>
    </g>
    <g id="ytick_6">
     <g id="line2d_48">
      <g>
       <use xlink:href="#m855dd9bd62" x="59.655118" y="132.47383" style="stroke: #000000; stroke-width: 0.6"/>
      </g>
     </g>
     <g id="text_49">
      <text style="font-size: 6.5px; font-family: 'Arial', 'Helvetica', 'DejaVu Sans', sans-serif; text-anchor: end" x="55.155118" y="134.80012" transform="rotate(-0 55.155118 134.80012)">Pan-human Azimuth</text>
     </g>
    </g>
    <g id="ytick_7">
     <g id="line2d_49">
      <g>
       <use xlink:href="#m855dd9bd62" x="59.655118" y="154.421491" style="stroke: #000000; stroke-width: 0.6"/>
      </g>
     </g>
     <g id="text_50">
      <text style="font-size: 6.5px; font-family: 'Arial', 'Helvetica', 'DejaVu Sans', sans-serif; text-anchor: end" x="55.155118" y="156.74778" transform="rotate(-0 55.155118 156.74778)">popV</text>
     </g>
    </g>
    <g id="ytick_8">
     <g id="line2d_50">
      <g>
       <use xlink:href="#m855dd9bd62" x="59.655118" y="176.369152" style="stroke: #000000; stroke-width: 0.6"/>
      </g>
     </g>
     <g id="text_51">
      <text style="font-size: 6.5px; font-family: 'Arial', 'Helvetica', 'DejaVu Sans', sans-serif; text-anchor: end" x="55.155118" y="178.695441" transform="rotate(-0 55.155118 178.695441)">RIBCA</text>
     </g>
    </g>
    <g id="ytick_9">
     <g id="line2d_51">
      <g>
       <use xlink:href="#m855dd9bd62" x="59.655118" y="198.316813" style="stroke: #000000; stroke-width: 0.6"/>
      </g>
     </g>
     <g id="text_52">
      <text style="font-size: 6.5px; font-family: 'Arial', 'Helvetica', 'DejaVu Sans', sans-serif; text-anchor: end" x="55.155118" y="200.643102" transform="rotate(-0 55.155118 200.643102)">STELLAR</text>
     </g>
    </g>
    <g id="ytick_10">
     <g id="line2d_52">
      <g>
       <use xlink:href="#m855dd9bd62" x="59.655118" y="220.264474" style="stroke: #000000; stroke-width: 0.6"/>
      </g>
     </g>
     <g id="text_53">
      <text style="font-size: 6.5px; font-family: 'Arial', 'Helvetica', 'DejaVu Sans', sans-serif; text-anchor: end" x="55.155118" y="222.590763" transform="rotate(-0 55.155118 222.590763)">VCCF</text>
     </g>
    </g>
    <g id="text_54">
     <text style="font-size: 7px; font-family: 'Arial', 'Helvetica', 'DejaVu Sans', sans-serif; text-anchor: middle" x="-21.877148" y="121.5" transform="rotate(-90 -21.877148 121.5)">Tool</text>
    </g>
   </g>
   <g id="patch_3">
    <path d="M 59.655118 233.433071 
L 59.655118 9.566929 
" style="fill: none; stroke: #000000; stroke-width: 0.6; stroke-linejoin: miter; stroke-linecap: square"/>
   </g>
   <g id="patch_4">
    <path d="M 59.655118 233.433071 
L 448.710236 233.433071 
" style="fill: none; stroke: #000000; stroke-width: 0.6; stroke-linejoin: miter; stroke-linecap: square"/>
   </g>
   <g id="legend_1">
    <g id="text_55">
     <text style="font-size: 6px; font-family: 'Arial', 'Helvetica', 'DejaVu Sans', sans-serif; text-anchor: start" x="451.888346" y="16.334742" transform="rotate(-0 451.888346 16.334742)">Cell Types per Tool</text>
    </g>
    <g id="PathCollection_5">
     <defs>
      <path id="m8353ac2e3d" d="M 0 1.423025 
C 0.377391 1.423025 0.739375 1.273086 1.006231 1.006231 
C 1.273086 0.739375 1.423025 0.377391 1.423025 0 
C 1.423025 -0.377391 1.273086 -0.739375 1.006231 -1.006231 
C 0.739375 -1.273086 0.377391 -1.423025 0 -1.423025 
C -0.377391 -1.423025 -0.739375 -1.273086 -1.006231 -1.006231 
C -1.273086 -0.739375 -1.423025 -0.377391 -1.423025 0 
C -1.423025 0.377391 -1.273086 0.739375 -1.006231 1.006231 
C -0.739375 1.273086 -0.377391 1.423025 0 1.423025 
z
"/>
     </defs>
     <g>
      <use xlink:href="#m8353ac2e3d" x="467.086159" y="32.661304" style="fill: #1f77b4; fill-opacity: 0.9"/>
     </g>
    </g>
    <g id="text_56">
     <text style="font-size: 6px; font-family: 'Arial', 'Helvetica', 'DejaVu Sans', sans-serif; text-anchor: start" x="478.486159" y="36.137554" transform="rotate(-0 478.486159 36.137554)">5</text>
    </g>
    <g id="PathCollection_6">
     <defs>
      <path id="mfc0cac1878" d="M 0 4.986231 
C 1.322364 4.986231 2.590745 4.46085 3.525798 3.525798 
C 4.46085 2.590745 4.986231 1.322364 4.986231 0 
C 4.986231 -1.322364 4.46085 -2.590745 3.525798 -3.525798 
C 2.590745 -4.46085 1.322364 -4.986231 0 -4.986231 
C -1.322364 -4.986231 -2.590745 -4.46085 -3.525798 -3.525798 
C -4.46085 -2.590745 -4.986231 -1.322364 -4.986231 0 
C -4.986231 1.322364 -4.46085 2.590745 -3.525798 3.525798 
C -2.590745 4.46085 -1.322364 4.986231 0 4.986231 
z
"/>
     </defs>
     <g>
      <use xlink:href="#mfc0cac1878" x="467.086159" y="53.931304" style="fill: #1f77b4; fill-opacity: 0.9"/>
     </g>
    </g>
    <g id="text_57">
     <text style="font-size: 6px; font-family: 'Arial', 'Helvetica', 'DejaVu Sans', sans-serif; text-anchor: start" x="478.486159" y="57.407554" transform="rotate(-0 478.486159 57.407554)">222.5</text>
    </g>
    <g id="PathCollection_7">
     <defs>
      <path id="mfad3494eee" d="M 0 6.906519 
C 1.83163 6.906519 3.588488 6.178804 4.883646 4.883646 
C 6.178804 3.588488 6.906519 1.83163 6.906519 0 
C 6.906519 -1.83163 6.178804 -3.588488 4.883646 -4.883646 
C 3.588488 -6.178804 1.83163 -6.906519 0 -6.906519 
C -1.83163 -6.906519 -3.588488 -6.178804 -4.883646 -4.883646 
C -6.178804 -3.588488 -6.906519 -1.83163 -6.906519 0 
C -6.906519 1.83163 -6.178804 3.588488 -4.883646 4.883646 
C -3.588488 6.178804 -1.83163 6.906519 0 6.906519 
z
"/>
     </defs>
     <g>
      <use xlink:href="#mfad3494eee" x="467.086159" y="75.201304" style="fill: #1f77b4; fill-opacity: 0.9"/>
     </g>
    </g>
    <g id="text_58">
     <text style="font-size: 6px; font-family: 'Arial', 'Helvetica', 'DejaVu Sans', sans-serif; text-anchor: start" x="478.486159" y="78.677554" transform="rotate(-0 478.486159 78.677554)">440</text>
    </g>
   </g>
  </g>
 </g>
 <defs>
  <clipPath id="pabff2c554f">
   <rect x="59.655118" y="9.566929" width="389.055118" height="223.866142"/>
  </clipPath>
 </defs>
</svg>
