<?xml version="1.0" encoding="utf-8" standalone="no"?>
<!DOCTYPE svg PUBLIC "-//W3C//DTD SVG 1.1//EN"
  "http://www.w3.org/Graphics/SVG/1.1/DTD/svg11.dtd">
<svg xmlns:xlink="http://www.w3.org/1999/xlink" width="606.787278pt" height="211.632915pt" viewBox="0 0 606.787278 211.632915" xmlns="http://www.w3.org/2000/svg" version="1.1">
 <metadata>
  <rdf:RDF xmlns:dc="http://purl.org/dc/elements/1.1/" xmlns:cc="http://creativecommons.org/ns#" xmlns:rdf="http://www.w3.org/1999/02/22-rdf-syntax-ns#">
   <cc:Work>
    <dc:type rdf:resource="http://purl.org/dc/dcmitype/StillImage"/>
    <dc:date>2026-07-20T15:45:53.495291</dc:date>
    <dc:format>image/svg+xml</dc:format>
    <dc:creator>
     <cc:Agent>
      <dc:title>Matplotlib v3.10.8, https://matplotlib.org/</dc:title>
     </cc:Agent>
    </dc:creator>
   </cc:Work>
  </rdf:RDF>
 </metadata>
 <defs>
  <style type="text/css">*{stroke-linejoin: round; stroke-linecap: butt}</style>
 </defs>
 <g id="figure_1">
  <g id="patch_1">
   <path d="M 0 211.632915 
L 606.787278 211.632915 
L 606.787278 0 
L 0 0 
z
" style="fill: #ffffff"/>
  </g>
  <g id="axes_1">
   <g id="patch_2">
    <path d="M 93.262813 113.373071 
L 539.577773 113.373071 
L 539.577773 1.44 
L 93.262813 1.44 
z
" style="fill: #ffffff"/>
   </g>
   <g id="PathCollection_1">
    <path d="M 226.52273 9.685623 
C 226.963318 9.685623 227.385921 9.510575 227.697464 9.199032 
C 228.009007 8.887489 228.184054 8.464887 228.184054 8.024298 
C 228.184054 7.58371 228.009007 7.161107 227.697464 6.849564 
C 227.385921 6.538021 226.963318 6.362974 226.52273 6.362974 
C 226.082141 6.362974 225.659539 6.538021 225.347996 6.849564 
C 225.036453 7.161107 224.861405 7.58371 224.861405 8.024298 
C 224.861405 8.464887 225.036453 8.887489 225.347996 9.199032 
C 225.659539 9.510575 226.082141 9.685623 226.52273 9.685623 
z
" clip-path="url(#p9ffd413dbb)" style="fill: #1f77b4; fill-opacity: 0.9"/>
    <path d="M 120.760891 11.120263 
C 121.58195 11.120263 122.369492 10.794053 122.950069 10.213476 
C 123.530645 9.632899 123.856856 8.845358 123.856856 8.024298 
C 123.856856 7.203239 123.530645 6.415697 122.950069 5.83512 
C 122.369492 5.254544 121.58195 4.928333 120.760891 4.928333 
C 119.939831 4.928333 119.152289 5.254544 118.571713 5.83512 
C 117.991136 6.415697 117.664926 7.203239 117.664926 8.024298 
C 117.664926 8.845358 117.991136 9.632899 118.571713 10.213476 
C 119.152289 10.794053 119.939831 11.120263 120.760891 11.120263 
z
" clip-path="url(#p9ffd413dbb)" style="fill: #1f77b4; fill-opacity: 0.9"/>
    <path d="M 501.503511 9.587948 
C 501.918196 9.587948 502.315952 9.423192 502.609178 9.129966 
C 502.902405 8.836739 503.067161 8.438983 503.067161 8.024298 
C 503.067161 7.609614 502.902405 7.211857 502.609178 6.918631 
C 502.315952 6.625405 501.918196 6.460649 501.503511 6.460649 
C 501.088826 6.460649 500.69107 6.625405 500.397844 6.918631 
C 500.104617 7.211857 499.939862 7.609614 499.939862 8.024298 
C 499.939862 8.438983 500.104617 8.836739 500.397844 9.129966 
C 500.69107 9.423192 501.088826 9.587948 501.503511 9.587948 
z
" clip-path="url(#p9ffd413dbb)" style="fill: #1f77b4; fill-opacity: 0.9"/>
    <path d="M 448.622592 9.807554 
C 449.095516 9.807554 449.549135 9.619659 449.883544 9.28525 
C 450.217952 8.950842 450.405847 8.497223 450.405847 8.024298 
C 450.405847 7.551373 450.217952 7.097755 449.883544 6.763346 
C 449.549135 6.428938 449.095516 6.241043 448.622592 6.241043 
C 448.149667 6.241043 447.696048 6.428938 447.36164 6.763346 
C 447.027231 7.097755 446.839336 7.551373 446.839336 8.024298 
C 446.839336 8.497223 447.027231 8.950842 447.36164 9.28525 
C 447.696048 9.619659 448.149667 9.807554 448.622592 9.807554 
z
" clip-path="url(#p9ffd413dbb)" style="fill: #1f77b4; fill-opacity: 0.9"/>
    <path d="M 205.370362 10.322123 
C 205.979752 10.322123 206.564265 10.08001 206.99517 9.649106 
C 207.426074 9.218202 207.668187 8.633689 207.668187 8.024298 
C 207.668187 7.414908 207.426074 6.830395 206.99517 6.399491 
C 206.564265 5.968587 205.979752 5.726473 205.370362 5.726473 
C 204.760972 5.726473 204.176458 5.968587 203.745554 6.399491 
C 203.31465 6.830395 203.072537 7.414908 203.072537 8.024298 
C 203.072537 8.633689 203.31465 9.218202 203.745554 9.649106 
C 204.176458 10.08001 204.760972 10.322123 205.370362 10.322123 
z
" clip-path="url(#p9ffd413dbb)" style="fill: #1f77b4; fill-opacity: 0.9"/>
    <path d="M 163.065626 9.587948 
C 163.480311 9.587948 163.878067 9.423192 164.171293 9.129966 
C 164.46452 8.836739 164.629276 8.438983 164.629276 8.024298 
C 164.629276 7.609614 164.46452 7.211857 164.171293 6.918631 
C 163.878067 6.625405 163.480311 6.460649 163.065626 6.460649 
C 162.650942 6.460649 162.253185 6.625405 161.959959 6.918631 
C 161.666733 7.211857 161.501977 7.609614 161.501977 8.024298 
C 161.501977 8.438983 161.666733 8.836739 161.959959 9.129966 
C 162.253185 9.423192 162.650942 9.587948 163.065626 9.587948 
z
" clip-path="url(#p9ffd413dbb)" style="fill: #1f77b4; fill-opacity: 0.9"/>
    <path d="M 194.794178 9.807554 
C 195.267103 9.807554 195.720722 9.619659 196.05513 9.28525 
C 196.389538 8.950842 196.577433 8.497223 196.577433 8.024298 
C 196.577433 7.551373 196.389538 7.097755 196.05513 6.763346 
C 195.720722 6.428938 195.267103 6.241043 194.794178 6.241043 
C 194.321253 6.241043 193.867634 6.428938 193.533226 6.763346 
C 193.198818 7.097755 193.010923 7.551373 193.010923 8.024298 
C 193.010923 8.497223 193.198818 8.950842 193.533226 9.28525 
C 193.867634 9.619659 194.321253 9.807554 194.794178 9.807554 
z
" clip-path="url(#p9ffd413dbb)" style="fill: #1f77b4; fill-opacity: 0.9"/>
    <path d="M 99.608523 10.721519 
C 100.323834 10.721519 101.009944 10.437323 101.515746 9.931521 
C 102.021547 9.42572 102.305744 8.73961 102.305744 8.024298 
C 102.305744 7.308987 102.021547 6.622877 101.515746 6.117075 
C 101.009944 5.611274 100.323834 5.327077 99.608523 5.327077 
C 98.893212 5.327077 98.207101 5.611274 97.7013 6.117075 
C 97.195498 6.622877 96.911302 7.308987 96.911302 8.024298 
C 96.911302 8.73961 97.195498 9.42572 97.7013 9.931521 
C 98.207101 10.437323 98.893212 10.721519 99.608523 10.721519 
z
" clip-path="url(#p9ffd413dbb)" style="fill: #1f77b4; fill-opacity: 0.9"/>
    <path d="M 406.317856 9.653715 
C 406.749982 9.653715 407.164468 9.48203 407.470028 9.17647 
C 407.775587 8.870911 407.947273 8.456425 407.947273 8.024298 
C 407.947273 7.592172 407.775587 7.177686 407.470028 6.872126 
C 407.164468 6.566567 406.749982 6.394881 406.317856 6.394881 
C 405.88573 6.394881 405.471244 6.566567 405.165684 6.872126 
C 404.860125 7.177686 404.688439 7.592172 404.688439 8.024298 
C 404.688439 8.456425 404.860125 8.870911 405.165684 9.17647 
C 405.471244 9.48203 405.88573 9.653715 406.317856 9.653715 
z
" clip-path="url(#p9ffd413dbb)" style="fill: #1f77b4; fill-opacity: 0.9"/>
    <path d="M 353.436936 10.029292 
C 353.968667 10.029292 354.478691 9.818033 354.854681 9.442043 
C 355.230671 9.066053 355.44193 8.556029 355.44193 8.024298 
C 355.44193 7.492568 355.230671 6.982544 354.854681 6.606554 
C 354.478691 6.230563 353.968667 6.019305 353.436936 6.019305 
C 352.905206 6.019305 352.395182 6.230563 352.019192 6.606554 
C 351.643201 6.982544 351.431943 7.492568 351.431943 8.024298 
C 351.431943 8.556029 351.643201 9.066053 352.019192 9.442043 
C 352.395182 9.818033 352.905206 10.029292 353.436936 10.029292 
z
" clip-path="url(#p9ffd413dbb)" style="fill: #1f77b4; fill-opacity: 0.9"/>
    <path d="M 533.232063 10.721519 
C 533.947374 10.721519 534.633484 10.437323 535.139286 9.931521 
C 535.645087 9.42572 535.929284 8.73961 535.929284 8.024298 
C 535.929284 7.308987 535.645087 6.622877 535.139286 6.117075 
C 534.633484 5.611274 533.947374 5.327077 533.232063 5.327077 
C 532.516751 5.327077 531.830641 5.611274 531.32484 6.117075 
C 530.819038 6.622877 530.534842 7.308987 530.534842 8.024298 
C 530.534842 8.73961 530.819038 9.42572 531.32484 9.931521 
C 531.830641 10.437323 532.516751 10.721519 533.232063 10.721519 
z
" clip-path="url(#p9ffd413dbb)" style="fill: #1f77b4; fill-opacity: 0.9"/>
    <path d="M 374.589304 9.89379 
C 375.085099 9.89379 375.560655 9.696809 375.911235 9.346229 
C 376.261815 8.995649 376.458796 8.520093 376.458796 8.024298 
C 376.458796 7.528503 376.261815 7.052948 375.911235 6.702368 
C 375.560655 6.351788 375.085099 6.154806 374.589304 6.154806 
C 374.093509 6.154806 373.617954 6.351788 373.267374 6.702368 
C 372.916794 7.052948 372.719812 7.528503 372.719812 8.024298 
C 372.719812 8.520093 372.916794 8.995649 373.267374 9.346229 
C 373.617954 9.696809 374.093509 9.89379 374.589304 9.89379 
z
" clip-path="url(#p9ffd413dbb)" style="fill: #1f77b4; fill-opacity: 0.9"/>
    <path d="M 364.01312 9.685623 
C 364.453709 9.685623 364.876311 9.510575 365.187854 9.199032 
C 365.499397 8.887489 365.674445 8.464887 365.674445 8.024298 
C 365.674445 7.58371 365.499397 7.161107 365.187854 6.849564 
C 364.876311 6.538021 364.453709 6.362974 364.01312 6.362974 
C 363.572532 6.362974 363.149929 6.538021 362.838386 6.849564 
C 362.526843 7.161107 362.351796 7.58371 362.351796 8.024298 
C 362.351796 8.464887 362.526843 8.887489 362.838386 9.199032 
C 363.149929 9.510575 363.572532 9.685623 364.01312 9.685623 
z
" clip-path="url(#p9ffd413dbb)" style="fill: #1f77b4; fill-opacity: 0.9"/>
    <path d="M 279.403649 11.533572 
C 280.334319 11.533572 281.226997 11.163813 281.88508 10.505729 
C 282.543163 9.847646 282.912923 8.954968 282.912923 8.024298 
C 282.912923 7.093628 282.543163 6.20095 281.88508 5.542867 
C 281.226997 4.884784 280.334319 4.515025 279.403649 4.515025 
C 278.472979 4.515025 277.580301 4.884784 276.922218 5.542867 
C 276.264135 6.20095 275.894376 7.093628 275.894376 8.024298 
C 275.894376 8.954968 276.264135 9.847646 276.922218 10.505729 
C 277.580301 11.163813 278.472979 11.533572 279.403649 11.533572 
z
" clip-path="url(#p9ffd413dbb)" style="fill: #1f77b4; fill-opacity: 0.9"/>
    <path d="M 438.046408 9.587948 
C 438.461092 9.587948 438.858849 9.423192 439.152075 9.129966 
C 439.445301 8.836739 439.610057 8.438983 439.610057 8.024298 
C 439.610057 7.609614 439.445301 7.211857 439.152075 6.918631 
C 438.858849 6.625405 438.461092 6.460649 438.046408 6.460649 
C 437.631723 6.460649 437.233967 6.625405 436.94074 6.918631 
C 436.647514 7.211857 436.482758 7.609614 436.482758 8.024298 
C 436.482758 8.438983 436.647514 8.836739 436.94074 9.129966 
C 437.233967 9.423192 437.631723 9.587948 438.046408 9.587948 
z
" clip-path="url(#p9ffd413dbb)" style="fill: #1f77b4; fill-opacity: 0.9"/>
    <path d="M 268.827465 10.252526 
C 269.418398 10.252526 269.985208 10.017746 270.40306 9.599893 
C 270.820913 9.182041 271.055693 8.615231 271.055693 8.024298 
C 271.055693 7.433365 270.820913 6.866556 270.40306 6.448703 
C 269.985208 6.03085 269.418398 5.79607 268.827465 5.79607 
C 268.236532 5.79607 267.669723 6.03085 267.25187 6.448703 
C 266.834017 6.866556 266.599237 7.433365 266.599237 8.024298 
C 266.599237 8.615231 266.834017 9.182041 267.25187 9.599893 
C 267.669723 10.017746 268.236532 10.252526 268.827465 10.252526 
z
" clip-path="url(#p9ffd413dbb)" style="fill: #1f77b4; fill-opacity: 0.9"/>
    <path d="M 247.675097 10.891353 
C 248.435449 10.891353 249.164761 10.589262 249.702411 10.051612 
C 250.240061 9.513962 250.542152 8.78465 250.542152 8.024298 
C 250.542152 7.263947 250.240061 6.534635 249.702411 5.996985 
C 249.164761 5.459335 248.435449 5.157244 247.675097 5.157244 
C 246.914746 5.157244 246.185434 5.459335 245.647784 5.996985 
C 245.110134 6.534635 244.808043 7.263947 244.808043 8.024298 
C 244.808043 8.78465 245.110134 9.513962 245.647784 10.051612 
C 246.185434 10.589262 246.914746 10.891353 247.675097 10.891353 
z
" clip-path="url(#p9ffd413dbb)" style="fill: #1f77b4; fill-opacity: 0.9"/>
    <path d="M 110.184707 9.685623 
C 110.625295 9.685623 111.047898 9.510575 111.359441 9.199032 
C 111.670984 8.887489 111.846032 8.464887 111.846032 8.024298 
C 111.846032 7.58371 111.670984 7.161107 111.359441 6.849564 
C 111.047898 6.538021 110.625295 6.362974 110.184707 6.362974 
C 109.744118 6.362974 109.321516 6.538021 109.009973 6.849564 
C 108.69843 7.161107 108.523382 7.58371 108.523382 8.024298 
C 108.523382 8.464887 108.69843 8.887489 109.009973 9.199032 
C 109.321516 9.510575 109.744118 9.685623 110.184707 9.685623 
z
" clip-path="url(#p9ffd413dbb)" style="fill: #1f77b4; fill-opacity: 0.9"/>
    <path d="M 459.198775 9.447323 
C 459.576166 9.447323 459.938151 9.297384 460.205006 9.030529 
C 460.471862 8.763673 460.6218 8.401689 460.6218 8.024298 
C 460.6218 7.646908 460.471862 7.284923 460.205006 7.018068 
C 459.938151 6.751212 459.576166 6.601273 459.198775 6.601273 
C 458.821385 6.601273 458.4594 6.751212 458.192545 7.018068 
C 457.925689 7.284923 457.775751 7.646908 457.775751 8.024298 
C 457.775751 8.401689 457.925689 8.763673 458.192545 9.030529 
C 458.4594 9.297384 458.821385 9.447323 459.198775 9.447323 
z
" clip-path="url(#p9ffd413dbb)" style="fill: #1f77b4; fill-opacity: 0.9"/>
    <path d="M 152.489442 10.540247 
C 153.15668 10.540247 153.796679 10.275151 154.268487 9.803343 
C 154.740295 9.331535 155.005391 8.691536 155.005391 8.024298 
C 155.005391 7.357061 154.740295 6.717062 154.268487 6.245254 
C 153.796679 5.773445 153.15668 5.508349 152.489442 5.508349 
C 151.822205 5.508349 151.182206 5.773445 150.710398 6.245254 
C 150.238589 6.717062 149.973493 7.357061 149.973493 8.024298 
C 149.973493 8.691536 150.238589 9.331535 150.710398 9.803343 
C 151.182206 10.275151 151.822205 10.540247 152.489442 10.540247 
z
" clip-path="url(#p9ffd413dbb)" style="fill: #1f77b4; fill-opacity: 0.9"/>
    <path d="M 342.860753 11.996703 
C 343.914247 11.996703 344.924734 11.578145 345.669667 10.833213 
C 346.4146 10.08828 346.833157 9.077792 346.833157 8.024298 
C 346.833157 6.970804 346.4146 5.960317 345.669667 5.215384 
C 344.924734 4.470451 343.914247 4.051893 342.860753 4.051893 
C 341.807258 4.051893 340.796771 4.470451 340.051838 5.215384 
C 339.306905 5.960317 338.888348 6.970804 338.888348 8.024298 
C 338.888348 9.077792 339.306905 10.08828 340.051838 10.833213 
C 340.796771 11.578145 341.807258 11.996703 342.860753 11.996703 
z
" clip-path="url(#p9ffd413dbb)" style="fill: #1f77b4; fill-opacity: 0.9"/>
    <path d="M 237.098914 20.659454 
C 237.539502 20.659454 237.962104 20.484406 238.273648 20.172863 
C 238.585191 19.86132 238.760238 19.438717 238.760238 18.998129 
C 238.760238 18.55754 238.585191 18.134938 238.273648 17.823395 
C 237.962104 17.511852 237.539502 17.336804 237.098914 17.336804 
C 236.658325 17.336804 236.235723 17.511852 235.92418 17.823395 
C 235.612636 18.134938 235.437589 18.55754 235.437589 18.998129 
C 235.437589 19.438717 235.612636 19.86132 235.92418 20.172863 
C 236.235723 20.484406 236.658325 20.659454 237.098914 20.659454 
z
" clip-path="url(#p9ffd413dbb)" style="fill: #1f77b4; fill-opacity: 0.9"/>
    <path d="M 289.979833 21.20267 
C 290.564484 21.20267 291.125268 20.970385 291.538679 20.556974 
C 291.95209 20.143564 292.184374 19.58278 292.184374 18.998129 
C 292.184374 18.413478 291.95209 17.852694 291.538679 17.439283 
C 291.125268 17.025872 290.564484 16.793588 289.979833 16.793588 
C 289.395182 16.793588 288.834398 17.025872 288.420987 17.439283 
C 288.007577 17.852694 287.775292 18.413478 287.775292 18.998129 
C 287.775292 19.58278 288.007577 20.143564 288.420987 20.556974 
C 288.834398 20.970385 289.395182 21.20267 289.979833 21.20267 
z
" clip-path="url(#p9ffd413dbb)" style="fill: #1f77b4; fill-opacity: 0.9"/>
    <path d="M 258.251281 22.930685 
C 259.294208 22.930685 260.294559 22.516326 261.032019 21.778866 
C 261.769479 21.041406 262.183838 20.041055 262.183838 18.998129 
C 262.183838 17.955203 261.769479 16.954852 261.032019 16.217391 
C 260.294559 15.479931 259.294208 15.065572 258.251281 15.065572 
C 257.208355 15.065572 256.208004 15.479931 255.470544 16.217391 
C 254.733084 16.954852 254.318725 17.955203 254.318725 18.998129 
C 254.318725 20.041055 254.733084 21.041406 255.470544 21.778866 
C 256.208004 22.516326 257.208355 22.930685 258.251281 22.930685 
z
" clip-path="url(#p9ffd413dbb)" style="fill: #1f77b4; fill-opacity: 0.9"/>
    <path d="M 226.52273 21.471992 
C 227.178806 21.471992 227.808099 21.21133 228.272015 20.747414 
C 228.735931 20.283498 228.996593 19.654205 228.996593 18.998129 
C 228.996593 18.342053 228.735931 17.712759 228.272015 17.248843 
C 227.808099 16.784927 227.178806 16.524265 226.52273 16.524265 
C 225.866653 16.524265 225.23736 16.784927 224.773444 17.248843 
C 224.309528 17.712759 224.048866 18.342053 224.048866 18.998129 
C 224.048866 19.654205 224.309528 20.283498 224.773444 20.747414 
C 225.23736 21.21133 225.866653 21.471992 226.52273 21.471992 
z
" clip-path="url(#p9ffd413dbb)" style="fill: #1f77b4; fill-opacity: 0.9"/>
    <path d="M 120.760891 21.080195 
C 121.313061 21.080195 121.84269 20.860815 122.233134 20.470372 
C 122.623577 20.079928 122.842957 19.550299 122.842957 18.998129 
C 122.842957 18.445958 122.623577 17.916329 122.233134 17.525886 
C 121.84269 17.135442 121.313061 16.916062 120.760891 16.916062 
C 120.20872 16.916062 119.679091 17.135442 119.288647 17.525886 
C 118.898204 17.916329 118.678824 18.445958 118.678824 18.998129 
C 118.678824 19.550299 118.898204 20.079928 119.288647 20.470372 
C 119.679091 20.860815 120.20872 21.080195 120.760891 21.080195 
z
" clip-path="url(#p9ffd413dbb)" style="fill: #1f77b4; fill-opacity: 0.9"/>
    <path d="M 205.370362 22.370072 
C 206.264612 22.370072 207.122356 22.014783 207.754686 21.382453 
C 208.387016 20.750123 208.742305 19.892379 208.742305 18.998129 
C 208.742305 18.103879 208.387016 17.246135 207.754686 16.613805 
C 207.122356 15.981475 206.264612 15.626186 205.370362 15.626186 
C 204.476112 15.626186 203.618368 15.981475 202.986038 16.613805 
C 202.353708 17.246135 201.998419 18.103879 201.998419 18.998129 
C 201.998419 19.892379 202.353708 20.750123 202.986038 21.382453 
C 203.618368 22.014783 204.476112 22.370072 205.370362 22.370072 
z
" clip-path="url(#p9ffd413dbb)" style="fill: #1f77b4; fill-opacity: 0.9"/>
    <path d="M 406.317856 20.867621 
C 406.813651 20.867621 407.289206 20.670639 407.639786 20.320059 
C 407.990366 19.969479 408.187348 19.493924 408.187348 18.998129 
C 408.187348 18.502334 407.990366 18.026778 407.639786 17.676198 
C 407.289206 17.325618 406.813651 17.128637 406.317856 17.128637 
C 405.822061 17.128637 405.346506 17.325618 404.995926 17.676198 
C 404.645346 18.026778 404.448364 18.502334 404.448364 18.998129 
C 404.448364 19.493924 404.645346 19.969479 404.995926 20.320059 
C 405.346506 20.670639 405.822061 20.867621 406.317856 20.867621 
z
" clip-path="url(#p9ffd413dbb)" style="fill: #1f77b4; fill-opacity: 0.9"/>
    <path d="M 353.436936 20.810586 
C 353.917606 20.810586 354.378653 20.619614 354.718537 20.279729 
C 355.058421 19.939845 355.249393 19.478798 355.249393 18.998129 
C 355.249393 18.51746 355.058421 18.056413 354.718537 17.716528 
C 354.378653 17.376644 353.917606 17.185672 353.436936 17.185672 
C 352.956267 17.185672 352.49522 17.376644 352.155336 17.716528 
C 351.815451 18.056413 351.62448 18.51746 351.62448 18.998129 
C 351.62448 19.478798 351.815451 19.939845 352.155336 20.279729 
C 352.49522 20.619614 352.956267 20.810586 353.436936 20.810586 
z
" clip-path="url(#p9ffd413dbb)" style="fill: #1f77b4; fill-opacity: 0.9"/>
    <path d="M 279.403649 22.226906 
C 280.259931 22.226906 281.081257 21.886701 281.686739 21.281219 
C 282.292222 20.675736 282.632426 19.85441 282.632426 18.998129 
C 282.632426 18.141847 282.292222 17.320521 281.686739 16.715039 
C 281.081257 16.109556 280.259931 15.769352 279.403649 15.769352 
C 278.547368 15.769352 277.726042 16.109556 277.120559 16.715039 
C 276.515077 17.320521 276.174872 18.141847 276.174872 18.998129 
C 276.174872 19.85441 276.515077 20.675736 277.120559 21.281219 
C 277.726042 21.886701 278.547368 22.226906 279.403649 22.226906 
z
" clip-path="url(#p9ffd413dbb)" style="fill: #1f77b4; fill-opacity: 0.9"/>
    <path d="M 416.89404 21.226357 
C 417.484973 21.226357 418.051782 20.991577 418.469635 20.573724 
C 418.887488 20.155871 419.122268 19.589062 419.122268 18.998129 
C 419.122268 18.407196 418.887488 17.840386 418.469635 17.422534 
C 418.051782 17.004681 417.484973 16.769901 416.89404 16.769901 
C 416.303107 16.769901 415.736297 17.004681 415.318445 17.422534 
C 414.900592 17.840386 414.665812 18.407196 414.665812 18.998129 
C 414.665812 19.589062 414.900592 20.155871 415.318445 20.573724 
C 415.736297 20.991577 416.303107 21.226357 416.89404 21.226357 
z
" clip-path="url(#p9ffd413dbb)" style="fill: #1f77b4; fill-opacity: 0.9"/>
    <path d="M 438.046408 21.249795 
C 438.643556 21.249795 439.216328 21.012545 439.638576 20.590297 
C 440.060824 20.168049 440.298074 19.595278 440.298074 18.998129 
C 440.298074 18.40098 440.060824 17.828208 439.638576 17.40596 
C 439.216328 16.983712 438.643556 16.746463 438.046408 16.746463 
C 437.449259 16.746463 436.876487 16.983712 436.454239 17.40596 
C 436.031991 17.828208 435.794742 18.40098 435.794742 18.998129 
C 435.794742 19.595278 436.031991 20.168049 436.454239 20.590297 
C 436.876487 21.012545 437.449259 21.249795 438.046408 21.249795 
z
" clip-path="url(#p9ffd413dbb)" style="fill: #1f77b4; fill-opacity: 0.9"/>
    <path d="M 268.827465 21.318689 
C 269.442885 21.318689 270.033182 21.07418 270.468349 20.639013 
C 270.903517 20.203845 271.148026 19.613549 271.148026 18.998129 
C 271.148026 18.382709 270.903517 17.792412 270.468349 17.357245 
C 270.033182 16.922077 269.442885 16.677568 268.827465 16.677568 
C 268.212045 16.677568 267.621749 16.922077 267.186581 17.357245 
C 266.751414 17.792412 266.506905 18.382709 266.506905 18.998129 
C 266.506905 19.613549 266.751414 20.203845 267.186581 20.639013 
C 267.621749 21.07418 268.212045 21.318689 268.827465 21.318689 
z
" clip-path="url(#p9ffd413dbb)" style="fill: #1f77b4; fill-opacity: 0.9"/>
    <path d="M 427.470224 22.930685 
C 428.51315 22.930685 429.513501 22.516326 430.250961 21.778866 
C 430.988421 21.041406 431.40278 20.041055 431.40278 18.998129 
C 431.40278 17.955203 430.988421 16.954852 430.250961 16.217391 
C 429.513501 15.479931 428.51315 15.065572 427.470224 15.065572 
C 426.427298 15.065572 425.426947 15.479931 424.689486 16.217391 
C 423.952026 16.954852 423.537667 17.955203 423.537667 18.998129 
C 423.537667 20.041055 423.952026 21.041406 424.689486 21.778866 
C 425.426947 22.516326 426.427298 22.930685 427.470224 22.930685 
z
" clip-path="url(#p9ffd413dbb)" style="fill: #1f77b4; fill-opacity: 0.9"/>
    <path d="M 247.675097 21.295954 
C 248.284488 21.295954 248.869001 21.05384 249.299905 20.622936 
C 249.730809 20.192032 249.972923 19.607519 249.972923 18.998129 
C 249.972923 18.388738 249.730809 17.804225 249.299905 17.373321 
C 248.869001 16.942417 248.284488 16.700304 247.675097 16.700304 
C 247.065707 16.700304 246.481194 16.942417 246.05029 17.373321 
C 245.619386 17.804225 245.377272 18.388738 245.377272 18.998129 
C 245.377272 19.607519 245.619386 20.192032 246.05029 20.622936 
C 246.481194 21.05384 247.065707 21.295954 247.675097 21.295954 
z
" clip-path="url(#p9ffd413dbb)" style="fill: #1f77b4; fill-opacity: 0.9"/>
    <path d="M 152.489442 21.471992 
C 153.145519 21.471992 153.774812 21.21133 154.238728 20.747414 
C 154.702644 20.283498 154.963306 19.654205 154.963306 18.998129 
C 154.963306 18.342053 154.702644 17.712759 154.238728 17.248843 
C 153.774812 16.784927 153.145519 16.524265 152.489442 16.524265 
C 151.833366 16.524265 151.204073 16.784927 150.740157 17.248843 
C 150.276241 17.712759 150.015579 18.342053 150.015579 18.998129 
C 150.015579 19.654205 150.276241 20.283498 150.740157 20.747414 
C 151.204073 21.21133 151.833366 21.471992 152.489442 21.471992 
z
" clip-path="url(#p9ffd413dbb)" style="fill: #1f77b4; fill-opacity: 0.9"/>
    <path d="M 215.946546 21.130029 
C 216.511932 21.130029 217.054238 20.905399 217.454027 20.50561 
C 217.853816 20.105821 218.078446 19.563515 218.078446 18.998129 
C 218.078446 18.432742 217.853816 17.890436 217.454027 17.490647 
C 217.054238 17.090859 216.511932 16.866228 215.946546 16.866228 
C 215.381159 16.866228 214.838853 17.090859 214.439064 17.490647 
C 214.039276 17.890436 213.814645 18.432742 213.814645 18.998129 
C 213.814645 19.563515 214.039276 20.105821 214.439064 20.50561 
C 214.838853 20.905399 215.381159 21.130029 215.946546 21.130029 
z
" clip-path="url(#p9ffd413dbb)" style="fill: #1f77b4; fill-opacity: 0.9"/>
    <path d="M 141.913258 32.10386 
C 142.478645 32.10386 143.020951 31.879229 143.42074 31.479441 
C 143.820529 31.079652 144.045159 30.537346 144.045159 29.971959 
C 144.045159 29.406573 143.820529 28.864267 143.42074 28.464478 
C 143.020951 28.064689 142.478645 27.840059 141.913258 27.840059 
C 141.347872 27.840059 140.805566 28.064689 140.405777 28.464478 
C 140.005988 28.864267 139.781358 29.406573 139.781358 29.971959 
C 139.781358 30.537346 140.005988 31.079652 140.405777 31.479441 
C 140.805566 31.879229 141.347872 32.10386 141.913258 32.10386 
z
" clip-path="url(#p9ffd413dbb)" style="fill: #1f77b4; fill-opacity: 0.9"/>
    <path d="M 141.913258 43.333257 
C 142.546422 43.333257 143.153738 43.081698 143.601453 42.633984 
C 144.049167 42.18627 144.300726 41.578953 144.300726 40.94579 
C 144.300726 40.312626 144.049167 39.70531 143.601453 39.257595 
C 143.153738 38.809881 142.546422 38.558322 141.913258 38.558322 
C 141.280095 38.558322 140.672779 38.809881 140.225064 39.257595 
C 139.77735 39.70531 139.525791 40.312626 139.525791 40.94579 
C 139.525791 41.578953 139.77735 42.18627 140.225064 42.633984 
C 140.672779 43.081698 141.280095 43.333257 141.913258 43.333257 
z
" clip-path="url(#p9ffd413dbb)" style="fill: #1f77b4; fill-opacity: 0.9"/>
    <path d="M 279.403649 54.731203 
C 280.14929 54.731203 280.864491 54.434957 281.391739 53.90771 
C 281.918986 53.380462 282.215232 52.665261 282.215232 51.91962 
C 282.215232 51.17398 281.918986 50.458778 281.391739 49.931531 
C 280.864491 49.404283 280.14929 49.108037 279.403649 49.108037 
C 278.658009 49.108037 277.942807 49.404283 277.41556 49.931531 
C 276.888312 50.458778 276.592066 51.17398 276.592066 51.91962 
C 276.592066 52.665261 276.888312 53.380462 277.41556 53.90771 
C 277.942807 54.434957 278.658009 54.731203 279.403649 54.731203 
z
" clip-path="url(#p9ffd413dbb)" style="fill: #1f77b4; fill-opacity: 0.9"/>
    <path d="M 141.913258 69.799969 
C 143.744889 69.799969 145.501747 69.072255 146.796905 67.777097 
C 148.092063 66.481939 148.819777 64.725081 148.819777 62.893451 
C 148.819777 61.061821 148.092063 59.304963 146.796905 58.009804 
C 145.501747 56.714646 143.744889 55.986932 141.913258 55.986932 
C 140.081628 55.986932 138.32477 56.714646 137.029612 58.009804 
C 135.734454 59.304963 135.00674 61.061821 135.00674 62.893451 
C 135.00674 64.725081 135.734454 66.481939 137.029612 67.777097 
C 138.32477 69.072255 140.081628 69.799969 141.913258 69.799969 
z
" clip-path="url(#p9ffd413dbb)" style="fill: #1f77b4; fill-opacity: 0.9"/>
    <path d="M 289.979833 75.845917 
C 290.504573 75.845917 291.007892 75.637435 291.37894 75.266388 
C 291.749987 74.895341 291.958469 74.392022 291.958469 73.867281 
C 291.958469 73.342541 291.749987 72.839222 291.37894 72.468174 
C 291.007892 72.097127 290.504573 71.888645 289.979833 71.888645 
C 289.455093 71.888645 288.951774 72.097127 288.580726 72.468174 
C 288.209679 72.839222 288.001197 73.342541 288.001197 73.867281 
C 288.001197 74.392022 288.209679 74.895341 288.580726 75.266388 
C 288.951774 75.637435 289.455093 75.845917 289.979833 75.845917 
z
" clip-path="url(#p9ffd413dbb)" style="fill: #1f77b4; fill-opacity: 0.9"/>
    <path d="M 258.251281 75.708476 
C 258.739572 75.708476 259.207929 75.514476 259.553203 75.169203 
C 259.898477 74.823929 260.092477 74.355572 260.092477 73.867281 
C 260.092477 73.37899 259.898477 72.910633 259.553203 72.565359 
C 259.207929 72.220086 258.739572 72.026086 258.251281 72.026086 
C 257.762991 72.026086 257.294633 72.220086 256.94936 72.565359 
C 256.604086 72.910633 256.410086 73.37899 256.410086 73.867281 
C 256.410086 74.355572 256.604086 74.823929 256.94936 75.169203 
C 257.294633 75.514476 257.762991 75.708476 258.251281 75.708476 
z
" clip-path="url(#p9ffd413dbb)" style="fill: #1f77b4; fill-opacity: 0.9"/>
    <path d="M 300.556017 75.559912 
C 301.004908 75.559912 301.435474 75.381566 301.752888 75.064152 
C 302.070302 74.746738 302.248648 74.316172 302.248648 73.867281 
C 302.248648 73.41839 302.070302 72.987824 301.752888 72.67041 
C 301.435474 72.352996 301.004908 72.17465 300.556017 72.17465 
C 300.107126 72.17465 299.67656 72.352996 299.359146 72.67041 
C 299.041732 72.987824 298.863386 73.41839 298.863386 73.867281 
C 298.863386 74.316172 299.041732 74.746738 299.359146 75.064152 
C 299.67656 75.381566 300.107126 75.559912 300.556017 75.559912 
z
" clip-path="url(#p9ffd413dbb)" style="fill: #1f77b4; fill-opacity: 0.9"/>
    <path d="M 120.760891 75.764648 
C 121.264078 75.764648 121.746724 75.564729 122.102531 75.208922 
C 122.458339 74.853115 122.658257 74.370469 122.658257 73.867281 
C 122.658257 73.364094 122.458339 72.881448 122.102531 72.52564 
C 121.746724 72.169833 121.264078 71.969915 120.760891 71.969915 
C 120.257703 71.969915 119.775057 72.169833 119.41925 72.52564 
C 119.063443 72.881448 118.863524 73.364094 118.863524 73.867281 
C 118.863524 74.370469 119.063443 74.853115 119.41925 75.208922 
C 119.775057 75.564729 120.257703 75.764648 120.760891 75.764648 
z
" clip-path="url(#p9ffd413dbb)" style="fill: #1f77b4; fill-opacity: 0.9"/>
    <path d="M 205.370362 75.290306 
C 205.747752 75.290306 206.109737 75.140367 206.376592 74.873512 
C 206.643448 74.606656 206.793387 74.244672 206.793387 73.867281 
C 206.793387 73.489891 206.643448 73.127906 206.376592 72.861051 
C 206.109737 72.594195 205.747752 72.444256 205.370362 72.444256 
C 204.992971 72.444256 204.630987 72.594195 204.364131 72.861051 
C 204.097276 73.127906 203.947337 73.489891 203.947337 73.867281 
C 203.947337 74.244672 204.097276 74.606656 204.364131 74.873512 
C 204.630987 75.140367 204.992971 75.290306 205.370362 75.290306 
z
" clip-path="url(#p9ffd413dbb)" style="fill: #1f77b4; fill-opacity: 0.9"/>
    <path d="M 194.794178 76.023667 
C 195.366058 76.023667 195.914593 75.796457 196.318973 75.392076 
C 196.723353 74.987696 196.950564 74.439161 196.950564 73.867281 
C 196.950564 73.295401 196.723353 72.746866 196.318973 72.342486 
C 195.914593 71.938106 195.366058 71.710895 194.794178 71.710895 
C 194.222298 71.710895 193.673763 71.938106 193.269383 72.342486 
C 192.865003 72.746866 192.637792 73.295401 192.637792 73.867281 
C 192.637792 74.439161 192.865003 74.987696 193.269383 75.392076 
C 193.673763 75.796457 194.222298 76.023667 194.794178 76.023667 
z
" clip-path="url(#p9ffd413dbb)" style="fill: #1f77b4; fill-opacity: 0.9"/>
    <path d="M 522.655879 75.559912 
C 523.10477 75.559912 523.535336 75.381566 523.85275 75.064152 
C 524.170164 74.746738 524.34851 74.316172 524.34851 73.867281 
C 524.34851 73.41839 524.170164 72.987824 523.85275 72.67041 
C 523.535336 72.352996 523.10477 72.17465 522.655879 72.17465 
C 522.206988 72.17465 521.776422 72.352996 521.459008 72.67041 
C 521.141594 72.987824 520.963248 73.41839 520.963248 73.867281 
C 520.963248 74.316172 521.141594 74.746738 521.459008 75.064152 
C 521.776422 75.381566 522.206988 75.559912 522.655879 75.559912 
z
" clip-path="url(#p9ffd413dbb)" style="fill: #1f77b4; fill-opacity: 0.9"/>
    <path d="M 395.741672 76.165106 
C 396.351062 76.165106 396.935576 75.922993 397.36648 75.492089 
C 397.797384 75.061185 398.039497 74.476671 398.039497 73.867281 
C 398.039497 73.257891 397.797384 72.673378 397.36648 72.242473 
C 396.935576 71.811569 396.351062 71.569456 395.741672 71.569456 
C 395.132282 71.569456 394.547768 71.811569 394.116864 72.242473 
C 393.68596 72.673378 393.443847 73.257891 393.443847 73.867281 
C 393.443847 74.476671 393.68596 75.061185 394.116864 75.492089 
C 394.547768 75.922993 395.132282 76.165106 395.741672 76.165106 
z
" clip-path="url(#p9ffd413dbb)" style="fill: #1f77b4; fill-opacity: 0.9"/>
    <path d="M 99.608523 75.528606 
C 100.049111 75.528606 100.471714 75.353558 100.783257 75.042015 
C 101.0948 74.730472 101.269848 74.30787 101.269848 73.867281 
C 101.269848 73.426693 101.0948 73.00409 100.783257 72.692547 
C 100.471714 72.381004 100.049111 72.205956 99.608523 72.205956 
C 99.167934 72.205956 98.745332 72.381004 98.433789 72.692547 
C 98.122246 73.00409 97.947198 73.426693 97.947198 73.867281 
C 97.947198 74.30787 98.122246 74.730472 98.433789 75.042015 
C 98.745332 75.353558 99.167934 75.528606 99.608523 75.528606 
z
" clip-path="url(#p9ffd413dbb)" style="fill: #1f77b4; fill-opacity: 0.9"/>
    <path d="M 512.079695 75.620849 
C 512.544747 75.620849 512.990814 75.436082 513.319655 75.107241 
C 513.648496 74.7784 513.833263 74.332333 513.833263 73.867281 
C 513.833263 73.40223 513.648496 72.956163 513.319655 72.627321 
C 512.990814 72.29848 512.544747 72.113713 512.079695 72.113713 
C 511.614643 72.113713 511.168576 72.29848 510.839735 72.627321 
C 510.510894 72.956163 510.326127 73.40223 510.326127 73.867281 
C 510.326127 74.332333 510.510894 74.7784 510.839735 75.107241 
C 511.168576 75.436082 511.614643 75.620849 512.079695 75.620849 
z
" clip-path="url(#p9ffd413dbb)" style="fill: #1f77b4; fill-opacity: 0.9"/>
    <path d="M 353.436936 75.59065 
C 353.893979 75.59065 354.332364 75.409065 354.655542 75.085887 
C 354.97872 74.762709 355.160305 74.324324 355.160305 73.867281 
C 355.160305 73.410238 354.97872 72.971853 354.655542 72.648675 
C 354.332364 72.325497 353.893979 72.143912 353.436936 72.143912 
C 352.979894 72.143912 352.541509 72.325497 352.218331 72.648675 
C 351.895153 72.971853 351.713568 73.410238 351.713568 73.867281 
C 351.713568 74.324324 351.895153 74.762709 352.218331 75.085887 
C 352.541509 75.409065 352.979894 75.59065 353.436936 75.59065 
z
" clip-path="url(#p9ffd413dbb)" style="fill: #1f77b4; fill-opacity: 0.9"/>
    <path d="M 469.774959 75.496698 
C 470.207086 75.496698 470.621572 75.325013 470.927131 75.019453 
C 471.232691 74.713893 471.404376 74.299408 471.404376 73.867281 
C 471.404376 73.435155 471.232691 73.020669 470.927131 72.715109 
C 470.621572 72.40955 470.207086 72.237864 469.774959 72.237864 
C 469.342833 72.237864 468.928347 72.40955 468.622788 72.715109 
C 468.317228 73.020669 468.145542 73.435155 468.145542 73.867281 
C 468.145542 74.299408 468.317228 74.713893 468.622788 75.019453 
C 468.928347 75.325013 469.342833 75.496698 469.774959 75.496698 
z
" clip-path="url(#p9ffd413dbb)" style="fill: #1f77b4; fill-opacity: 0.9"/>
    <path d="M 311.132201 75.59065 
C 311.589244 75.59065 312.027629 75.409065 312.350807 75.085887 
C 312.673985 74.762709 312.85557 74.324324 312.85557 73.867281 
C 312.85557 73.410238 312.673985 72.971853 312.350807 72.648675 
C 312.027629 72.325497 311.589244 72.143912 311.132201 72.143912 
C 310.675158 72.143912 310.236773 72.325497 309.913595 72.648675 
C 309.590417 72.971853 309.408832 73.410238 309.408832 73.867281 
C 309.408832 74.324324 309.590417 74.762709 309.913595 75.085887 
C 310.236773 75.409065 310.675158 75.59065 311.132201 75.59065 
z
" clip-path="url(#p9ffd413dbb)" style="fill: #1f77b4; fill-opacity: 0.9"/>
    <path d="M 279.403649 76.254748 
C 280.036813 76.254748 280.644129 76.00319 281.091843 75.555475 
C 281.539558 75.107761 281.791116 74.500445 281.791116 73.867281 
C 281.791116 73.234117 281.539558 72.626801 281.091843 72.179087 
C 280.644129 71.731372 280.036813 71.479814 279.403649 71.479814 
C 278.770485 71.479814 278.163169 71.731372 277.715455 72.179087 
C 277.26774 72.626801 277.016182 73.234117 277.016182 73.867281 
C 277.016182 74.500445 277.26774 75.107761 277.715455 75.555475 
C 278.163169 76.00319 278.770485 76.254748 279.403649 76.254748 
z
" clip-path="url(#p9ffd413dbb)" style="fill: #1f77b4; fill-opacity: 0.9"/>
    <path d="M 416.89404 75.872275 
C 417.42577 75.872275 417.935794 75.661016 418.311785 75.285026 
C 418.687775 74.909036 418.899034 74.399012 418.899034 73.867281 
C 418.899034 73.335551 418.687775 72.825527 418.311785 72.449536 
C 417.935794 72.073546 417.42577 71.862287 416.89404 71.862287 
C 416.362309 71.862287 415.852285 72.073546 415.476295 72.449536 
C 415.100305 72.825527 414.889046 73.335551 414.889046 73.867281 
C 414.889046 74.399012 415.100305 74.909036 415.476295 75.285026 
C 415.852285 75.661016 416.362309 75.872275 416.89404 75.872275 
z
" clip-path="url(#p9ffd413dbb)" style="fill: #1f77b4; fill-opacity: 0.9"/>
    <path d="M 438.046408 75.898291 
C 438.585038 75.898291 439.101679 75.684291 439.482548 75.303422 
C 439.863417 74.922553 440.077417 74.405911 440.077417 73.867281 
C 440.077417 73.328651 439.863417 72.812009 439.482548 72.43114 
C 439.101679 72.050272 438.585038 71.836272 438.046408 71.836272 
C 437.507778 71.836272 436.991136 72.050272 436.610267 72.43114 
C 436.229398 72.812009 436.015398 73.328651 436.015398 73.867281 
C 436.015398 74.405911 436.229398 74.922553 436.610267 75.303422 
C 436.991136 75.684291 437.507778 75.898291 438.046408 75.898291 
z
" clip-path="url(#p9ffd413dbb)" style="fill: #1f77b4; fill-opacity: 0.9"/>
    <path d="M 268.827465 75.528606 
C 269.268054 75.528606 269.690656 75.353558 270.002199 75.042015 
C 270.313742 74.730472 270.48879 74.30787 270.48879 73.867281 
C 270.48879 73.426693 270.313742 73.00409 270.002199 72.692547 
C 269.690656 72.381004 269.268054 72.205956 268.827465 72.205956 
C 268.386877 72.205956 267.964274 72.381004 267.652731 72.692547 
C 267.341188 73.00409 267.16614 73.426693 267.16614 73.867281 
C 267.16614 74.30787 267.341188 74.730472 267.652731 75.042015 
C 267.964274 75.353558 268.386877 75.528606 268.827465 75.528606 
z
" clip-path="url(#p9ffd413dbb)" style="fill: #1f77b4; fill-opacity: 0.9"/>
    <path d="M 427.470224 75.679738 
C 427.950893 75.679738 428.41194 75.488766 428.751824 75.148882 
C 429.091709 74.808997 429.282681 74.34795 429.282681 73.867281 
C 429.282681 73.386612 429.091709 72.925565 428.751824 72.585681 
C 428.41194 72.245796 427.950893 72.054824 427.470224 72.054824 
C 426.989555 72.054824 426.528508 72.245796 426.188623 72.585681 
C 425.848739 72.925565 425.657767 73.386612 425.657767 73.867281 
C 425.657767 74.34795 425.848739 74.808997 426.188623 75.148882 
C 426.528508 75.488766 426.989555 75.679738 427.470224 75.679738 
z
" clip-path="url(#p9ffd413dbb)" style="fill: #1f77b4; fill-opacity: 0.9"/>
    <path d="M 385.165488 75.559912 
C 385.614379 75.559912 386.044945 75.381566 386.362359 75.064152 
C 386.679773 74.746738 386.858119 74.316172 386.858119 73.867281 
C 386.858119 73.41839 386.679773 72.987824 386.362359 72.67041 
C 386.044945 72.352996 385.614379 72.17465 385.165488 72.17465 
C 384.716597 72.17465 384.286031 72.352996 383.968617 72.67041 
C 383.651203 72.987824 383.472857 73.41839 383.472857 73.867281 
C 383.472857 74.316172 383.651203 74.746738 383.968617 75.064152 
C 384.286031 75.381566 384.716597 75.559912 385.165488 75.559912 
z
" clip-path="url(#p9ffd413dbb)" style="fill: #1f77b4; fill-opacity: 0.9"/>
    <path d="M 459.198775 75.845917 
C 459.723516 75.845917 460.226835 75.637435 460.597882 75.266388 
C 460.96893 74.895341 461.177411 74.392022 461.177411 73.867281 
C 461.177411 73.342541 460.96893 72.839222 460.597882 72.468174 
C 460.226835 72.097127 459.723516 71.888645 459.198775 71.888645 
C 458.674035 71.888645 458.170716 72.097127 457.799669 72.468174 
C 457.428621 72.839222 457.22014 73.342541 457.22014 73.867281 
C 457.22014 74.392022 457.428621 74.895341 457.799669 75.266388 
C 458.170716 75.637435 458.674035 75.845917 459.198775 75.845917 
z
" clip-path="url(#p9ffd413dbb)" style="fill: #1f77b4; fill-opacity: 0.9"/>
    <path d="M 152.489442 75.620849 
C 152.954494 75.620849 153.400561 75.436082 153.729402 75.107241 
C 154.058243 74.7784 154.24301 74.332333 154.24301 73.867281 
C 154.24301 73.40223 154.058243 72.956163 153.729402 72.627321 
C 153.400561 72.29848 152.954494 72.113713 152.489442 72.113713 
C 152.024391 72.113713 151.578324 72.29848 151.249483 72.627321 
C 150.920642 72.956163 150.735875 73.40223 150.735875 73.867281 
C 150.735875 74.332333 150.920642 74.7784 151.249483 75.107241 
C 151.578324 75.436082 152.024391 75.620849 152.489442 75.620849 
z
" clip-path="url(#p9ffd413dbb)" style="fill: #1f77b4; fill-opacity: 0.9"/>
    <path d="M 321.708385 75.898291 
C 322.247015 75.898291 322.763656 75.684291 323.144525 75.303422 
C 323.525394 74.922553 323.739394 74.405911 323.739394 73.867281 
C 323.739394 73.328651 323.525394 72.812009 323.144525 72.43114 
C 322.763656 72.050272 322.247015 71.836272 321.708385 71.836272 
C 321.169755 71.836272 320.653113 72.050272 320.272244 72.43114 
C 319.891375 72.812009 319.677375 73.328651 319.677375 73.867281 
C 319.677375 74.405911 319.891375 74.922553 320.272244 75.303422 
C 320.653113 75.684291 321.169755 75.898291 321.708385 75.898291 
z
" clip-path="url(#p9ffd413dbb)" style="fill: #1f77b4; fill-opacity: 0.9"/>
    <path d="M 490.927327 75.708476 
C 491.415618 75.708476 491.883975 75.514476 492.229249 75.169203 
C 492.574523 74.823929 492.768522 74.355572 492.768522 73.867281 
C 492.768522 73.37899 492.574523 72.910633 492.229249 72.565359 
C 491.883975 72.220086 491.415618 72.026086 490.927327 72.026086 
C 490.439036 72.026086 489.970679 72.220086 489.625406 72.565359 
C 489.280132 72.910633 489.086132 73.37899 489.086132 73.867281 
C 489.086132 74.355572 489.280132 74.823929 489.625406 75.169203 
C 489.970679 75.514476 490.439036 75.708476 490.927327 75.708476 
z
" clip-path="url(#p9ffd413dbb)" style="fill: #1f77b4; fill-opacity: 0.9"/>
    <path d="M 131.337075 75.59065 
C 131.794117 75.59065 132.232502 75.409065 132.55568 75.085887 
C 132.878858 74.762709 133.060443 74.324324 133.060443 73.867281 
C 133.060443 73.410238 132.878858 72.971853 132.55568 72.648675 
C 132.232502 72.325497 131.794117 72.143912 131.337075 72.143912 
C 130.880032 72.143912 130.441647 72.325497 130.118469 72.648675 
C 129.795291 72.971853 129.613706 73.410238 129.613706 73.867281 
C 129.613706 74.324324 129.795291 74.762709 130.118469 75.085887 
C 130.441647 75.409065 130.880032 75.59065 131.337075 75.59065 
z
" clip-path="url(#p9ffd413dbb)" style="fill: #1f77b4; fill-opacity: 0.9"/>
    <path d="M 141.913258 86.594679 
C 142.37831 86.594679 142.824377 86.409912 143.153218 86.081071 
C 143.482059 85.75223 143.666826 85.306163 143.666826 84.841112 
C 143.666826 84.37606 143.482059 83.929993 143.153218 83.601152 
C 142.824377 83.272311 142.37831 83.087544 141.913258 83.087544 
C 141.448207 83.087544 141.00214 83.272311 140.673299 83.601152 
C 140.344458 83.929993 140.159691 84.37606 140.159691 84.841112 
C 140.159691 85.306163 140.344458 85.75223 140.673299 86.081071 
C 141.00214 86.409912 141.448207 86.594679 141.913258 86.594679 
z
" clip-path="url(#p9ffd413dbb)" style="fill: #1f77b4; fill-opacity: 0.9"/>
    <path d="M 226.52273 97.845952 
C 227.06136 97.845952 227.578001 97.631952 227.95887 97.251083 
C 228.339739 96.870214 228.553739 96.353572 228.553739 95.814942 
C 228.553739 95.276312 228.339739 94.75967 227.95887 94.378801 
C 227.578001 93.997932 227.06136 93.783933 226.52273 93.783933 
C 225.9841 93.783933 225.467458 93.997932 225.086589 94.378801 
C 224.70572 94.75967 224.49172 95.276312 224.49172 95.814942 
C 224.49172 96.353572 224.70572 96.870214 225.086589 97.251083 
C 225.467458 97.631952 225.9841 97.845952 226.52273 97.845952 
z
" clip-path="url(#p9ffd413dbb)" style="fill: #1f77b4; fill-opacity: 0.9"/>
    <path d="M 289.979833 109.086598 
C 290.589223 109.086598 291.173737 108.844484 291.604641 108.41358 
C 292.035545 107.982676 292.277658 107.398163 292.277658 106.788773 
C 292.277658 106.179382 292.035545 105.594869 291.604641 105.163965 
C 291.173737 104.733061 290.589223 104.490948 289.979833 104.490948 
C 289.370443 104.490948 288.785929 104.733061 288.355025 105.163965 
C 287.924121 105.594869 287.682008 106.179382 287.682008 106.788773 
C 287.682008 107.398163 287.924121 107.982676 288.355025 108.41358 
C 288.785929 108.844484 289.370443 109.086598 289.979833 109.086598 
z
" clip-path="url(#p9ffd413dbb)" style="fill: #1f77b4; fill-opacity: 0.9"/>
    <path d="M 226.52273 109.040439 
C 227.119878 109.040439 227.69265 108.803189 228.114898 108.380941 
C 228.537146 107.958693 228.774396 107.385921 228.774396 106.788773 
C 228.774396 106.191624 228.537146 105.618852 228.114898 105.196604 
C 227.69265 104.774356 227.119878 104.537107 226.52273 104.537107 
C 225.925581 104.537107 225.352809 104.774356 224.930561 105.196604 
C 224.508313 105.618852 224.271064 106.191624 224.271064 106.788773 
C 224.271064 107.385921 224.508313 107.958693 224.930561 108.380941 
C 225.352809 108.803189 225.925581 109.040439 226.52273 109.040439 
z
" clip-path="url(#p9ffd413dbb)" style="fill: #1f77b4; fill-opacity: 0.9"/>
    <path d="M 332.284569 109.109333 
C 332.899988 109.109333 333.490285 108.864824 333.925453 108.429656 
C 334.36062 107.994489 334.605129 107.404192 334.605129 106.788773 
C 334.605129 106.173353 334.36062 105.583056 333.925453 105.147889 
C 333.490285 104.712721 332.899988 104.468212 332.284569 104.468212 
C 331.669149 104.468212 331.078852 104.712721 330.643685 105.147889 
C 330.208517 105.583056 329.964008 106.173353 329.964008 106.788773 
C 329.964008 107.404192 330.208517 107.994489 330.643685 108.429656 
C 331.078852 108.864824 331.669149 109.109333 332.284569 109.109333 
z
" clip-path="url(#p9ffd413dbb)" style="fill: #1f77b4; fill-opacity: 0.9"/>
    <path d="M 184.217994 108.658264 
C 184.713789 108.658264 185.189344 108.461283 185.539924 108.110703 
C 185.890504 107.760123 186.087486 107.284568 186.087486 106.788773 
C 186.087486 106.292978 185.890504 105.817422 185.539924 105.466842 
C 185.189344 105.116262 184.713789 104.919281 184.217994 104.919281 
C 183.722199 104.919281 183.246644 105.116262 182.896064 105.466842 
C 182.545484 105.817422 182.348502 106.292978 182.348502 106.788773 
C 182.348502 107.284568 182.545484 107.760123 182.896064 108.110703 
C 183.246644 108.461283 183.722199 108.658264 184.217994 108.658264 
z
" clip-path="url(#p9ffd413dbb)" style="fill: #1f77b4; fill-opacity: 0.9"/>
    <path d="M 353.436936 108.211798 
C 353.814327 108.211798 354.176312 108.061859 354.443167 107.795003 
C 354.710023 107.528148 354.859961 107.166163 354.859961 106.788773 
C 354.859961 106.411382 354.710023 106.049397 354.443167 105.782542 
C 354.176312 105.515687 353.814327 105.365748 353.436936 105.365748 
C 353.059546 105.365748 352.697561 105.515687 352.430706 105.782542 
C 352.16385 106.049397 352.013912 106.411382 352.013912 106.788773 
C 352.013912 107.166163 352.16385 107.528148 352.430706 107.795003 
C 352.697561 108.061859 353.059546 108.211798 353.436936 108.211798 
z
" clip-path="url(#p9ffd413dbb)" style="fill: #1f77b4; fill-opacity: 0.9"/>
    <path d="M 279.403649 108.920673 
C 279.969036 108.920673 280.511342 108.696043 280.911131 108.296254 
C 281.310919 107.896465 281.53555 107.354159 281.53555 106.788773 
C 281.53555 106.223386 281.310919 105.68108 280.911131 105.281291 
C 280.511342 104.881503 279.969036 104.656872 279.403649 104.656872 
C 278.838263 104.656872 278.295957 104.881503 277.896168 105.281291 
C 277.496379 105.68108 277.271749 106.223386 277.271749 106.788773 
C 277.271749 107.354159 277.496379 107.896465 277.896168 108.296254 
C 278.295957 108.696043 278.838263 108.920673 279.403649 108.920673 
z
" clip-path="url(#p9ffd413dbb)" style="fill: #1f77b4; fill-opacity: 0.9"/>
    <path d="M 416.89404 108.686139 
C 417.397227 108.686139 417.879873 108.486221 418.235681 108.130413 
C 418.591488 107.774606 418.791406 107.29196 418.791406 106.788773 
C 418.791406 106.285585 418.591488 105.802939 418.235681 105.447132 
C 417.879873 105.091324 417.397227 104.891406 416.89404 104.891406 
C 416.390852 104.891406 415.908206 105.091324 415.552399 105.447132 
C 415.196592 105.802939 414.996673 106.285585 414.996673 106.788773 
C 414.996673 107.29196 415.196592 107.774606 415.552399 108.130413 
C 415.908206 108.486221 416.390852 108.686139 416.89404 108.686139 
z
" clip-path="url(#p9ffd413dbb)" style="fill: #1f77b4; fill-opacity: 0.9"/>
    <path d="M 438.046408 108.686139 
C 438.549595 108.686139 439.032241 108.486221 439.388048 108.130413 
C 439.743856 107.774606 439.943774 107.29196 439.943774 106.788773 
C 439.943774 106.285585 439.743856 105.802939 439.388048 105.447132 
C 439.032241 105.091324 438.549595 104.891406 438.046408 104.891406 
C 437.54322 104.891406 437.060574 105.091324 436.704767 105.447132 
C 436.34896 105.802939 436.149041 106.285585 436.149041 106.788773 
C 436.149041 107.29196 436.34896 107.774606 436.704767 108.130413 
C 437.060574 108.486221 437.54322 108.686139 438.046408 108.686139 
z
" clip-path="url(#p9ffd413dbb)" style="fill: #1f77b4; fill-opacity: 0.9"/>
    <path d="M 152.489442 109.366562 
C 153.17308 109.366562 153.82881 109.09495 154.312215 108.611545 
C 154.79562 108.12814 155.067232 107.47241 155.067232 106.788773 
C 155.067232 106.105135 154.79562 105.449405 154.312215 104.966 
C 153.82881 104.482595 153.17308 104.210983 152.489442 104.210983 
C 151.805805 104.210983 151.150075 104.482595 150.66667 104.966 
C 150.183265 105.449405 149.911653 106.105135 149.911653 106.788773 
C 149.911653 107.47241 150.183265 108.12814 150.66667 108.611545 
C 151.150075 109.09495 151.805805 109.366562 152.489442 109.366562 
z
" clip-path="url(#p9ffd413dbb)" style="fill: #1f77b4; fill-opacity: 0.9"/>
    <path d="M 480.351143 109.781263 
C 481.144761 109.781263 481.905981 109.465955 482.467154 108.904783 
C 483.028326 108.34361 483.343634 107.58239 483.343634 106.788773 
C 483.343634 105.995155 483.028326 105.233935 482.467154 104.672762 
C 481.905981 104.11159 481.144761 103.796282 480.351143 103.796282 
C 479.557525 103.796282 478.796305 104.11159 478.235133 104.672762 
C 477.67396 105.233935 477.358653 105.995155 477.358653 106.788773 
C 477.358653 107.58239 477.67396 108.34361 478.235133 108.904783 
C 478.796305 109.465955 479.557525 109.781263 480.351143 109.781263 
z
" clip-path="url(#p9ffd413dbb)" style="fill: #1f77b4; fill-opacity: 0.9"/>
    <path d="M 173.64181 108.920673 
C 174.207197 108.920673 174.749503 108.696043 175.149291 108.296254 
C 175.54908 107.896465 175.773711 107.354159 175.773711 106.788773 
C 175.773711 106.223386 175.54908 105.68108 175.149291 105.281291 
C 174.749503 104.881503 174.207197 104.656872 173.64181 104.656872 
C 173.076424 104.656872 172.534118 104.881503 172.134329 105.281291 
C 171.73454 105.68108 171.50991 106.223386 171.50991 106.788773 
C 171.50991 107.354159 171.73454 107.896465 172.134329 108.296254 
C 172.534118 108.696043 173.076424 108.920673 173.64181 108.920673 
z
" clip-path="url(#p9ffd413dbb)" style="fill: #1f77b4; fill-opacity: 0.9"/>
   </g>
   <g id="PathCollection_2"/>
   <g id="PathCollection_3"/>
   <g id="PathCollection_4"/>
   <g id="matplotlib.axis_1">
    <g id="xtick_1">
     <g id="line2d_1">
      <defs>
       <path id="ma71c6dfb97" d="M 0 0 
L 0 2.5 
" style="stroke: #000000; stroke-width: 0.6"/>
      </defs>
      <g>
       <use xlink:href="#ma71c6dfb97" x="99.608523" y="113.373071" style="stroke: #000000; stroke-width: 0.6"/>
      </g>
     </g>
     <g id="text_1">
      <text style="font-size: 7px; font-family: 'Arial', 'Helvetica', 'DejaVu Sans', sans-serif; text-anchor: end" x="104.618992" y="116.873071" transform="rotate(-90 104.618992 116.873071)">adipose tissue</text>
     </g>
    </g>
    <g id="xtick_2">
     <g id="line2d_2">
      <g>
       <use xlink:href="#ma71c6dfb97" x="110.184707" y="113.373071" style="stroke: #000000; stroke-width: 0.6"/>
      </g>
     </g>
     <g id="text_2">
      <text style="font-size: 7px; font-family: 'Arial', 'Helvetica', 'DejaVu Sans', sans-serif; text-anchor: end" x="115.195175" y="116.873071" transform="rotate(-90 115.195175 116.873071)">adrenal gland</text>
     </g>
    </g>
    <g id="xtick_3">
     <g id="line2d_3">
      <g>
       <use xlink:href="#ma71c6dfb97" x="120.760891" y="113.373071" style="stroke: #000000; stroke-width: 0.6"/>
      </g>
     </g>
     <g id="text_3">
      <text style="font-size: 7px; font-family: 'Arial', 'Helvetica', 'DejaVu Sans', sans-serif; text-anchor: end" x="125.771359" y="116.873071" transform="rotate(-90 125.771359 116.873071)">blood</text>
     </g>
    </g>
    <g id="xtick_4">
     <g id="line2d_4">
      <g>
       <use xlink:href="#ma71c6dfb97" x="131.337075" y="113.373071" style="stroke: #000000; stroke-width: 0.6"/>
      </g>
     </g>
     <g id="text_4">
      <text style="font-size: 7px; font-family: 'Arial', 'Helvetica', 'DejaVu Sans', sans-serif; text-anchor: end" x="136.347543" y="116.873071" transform="rotate(-90 136.347543 116.873071)">blood vasculature</text>
     </g>
    </g>
    <g id="xtick_5">
     <g id="line2d_5">
      <g>
       <use xlink:href="#ma71c6dfb97" x="141.913258" y="113.373071" style="stroke: #000000; stroke-width: 0.6"/>
      </g>
     </g>
     <g id="text_5">
      <text style="font-size: 7px; font-family: 'Arial', 'Helvetica', 'DejaVu Sans', sans-serif; text-anchor: end" x="146.923727" y="116.873071" transform="rotate(-90 146.923727 116.873071)">body proper</text>
     </g>
    </g>
    <g id="xtick_6">
     <g id="line2d_6">
      <g>
       <use xlink:href="#ma71c6dfb97" x="152.489442" y="113.373071" style="stroke: #000000; stroke-width: 0.6"/>
      </g>
     </g>
     <g id="text_6">
      <text style="font-size: 7px; font-family: 'Arial', 'Helvetica', 'DejaVu Sans', sans-serif; text-anchor: end" x="157.499911" y="116.873071" transform="rotate(-90 157.499911 116.873071)">bone marrow</text>
     </g>
    </g>
    <g id="xtick_7">
     <g id="line2d_7">
      <g>
       <use xlink:href="#ma71c6dfb97" x="163.065626" y="113.373071" style="stroke: #000000; stroke-width: 0.6"/>
      </g>
     </g>
     <g id="text_7">
      <text style="font-size: 7px; font-family: 'Arial', 'Helvetica', 'DejaVu Sans', sans-serif; text-anchor: end" x="168.076095" y="116.873071" transform="rotate(-90 168.076095 116.873071)">brain</text>
     </g>
    </g>
    <g id="xtick_8">
     <g id="line2d_8">
      <g>
       <use xlink:href="#ma71c6dfb97" x="173.64181" y="113.373071" style="stroke: #000000; stroke-width: 0.6"/>
      </g>
     </g>
     <g id="text_8">
      <text style="font-size: 7px; font-family: 'Arial', 'Helvetica', 'DejaVu Sans', sans-serif; text-anchor: end" x="178.652279" y="116.873071" transform="rotate(-90 178.652279 116.873071)">decidua</text>
     </g>
    </g>
    <g id="xtick_9">
     <g id="line2d_9">
      <g>
       <use xlink:href="#ma71c6dfb97" x="184.217994" y="113.373071" style="stroke: #000000; stroke-width: 0.6"/>
      </g>
     </g>
     <g id="text_9">
      <text style="font-size: 7px; font-family: 'Arial', 'Helvetica', 'DejaVu Sans', sans-serif; text-anchor: end" x="189.228463" y="116.873071" transform="rotate(-90 189.228463 116.873071)">esophagus</text>
     </g>
    </g>
    <g id="xtick_10">
     <g id="line2d_10">
      <g>
       <use xlink:href="#ma71c6dfb97" x="194.794178" y="113.373071" style="stroke: #000000; stroke-width: 0.6"/>
      </g>
     </g>
     <g id="text_10">
      <text style="font-size: 7px; font-family: 'Arial', 'Helvetica', 'DejaVu Sans', sans-serif; text-anchor: end" x="199.722615" y="116.873071" transform="rotate(-90 199.722615 116.873071)">eye</text>
     </g>
    </g>
    <g id="xtick_11">
     <g id="line2d_11">
      <g>
       <use xlink:href="#ma71c6dfb97" x="205.370362" y="113.373071" style="stroke: #000000; stroke-width: 0.6"/>
      </g>
     </g>
     <g id="text_11">
      <text style="font-size: 7px; font-family: 'Arial', 'Helvetica', 'DejaVu Sans', sans-serif; text-anchor: end" x="210.380831" y="116.873071" transform="rotate(-90 210.380831 116.873071)">heart</text>
     </g>
    </g>
    <g id="xtick_12">
     <g id="line2d_12">
      <g>
       <use xlink:href="#ma71c6dfb97" x="215.946546" y="113.373071" style="stroke: #000000; stroke-width: 0.6"/>
      </g>
     </g>
     <g id="text_12">
      <text style="font-size: 7px; font-family: 'Arial', 'Helvetica', 'DejaVu Sans', sans-serif; text-anchor: end" x="221.042327" y="116.873071" transform="rotate(-90 221.042327 116.873071)">hippocampal formation</text>
     </g>
    </g>
    <g id="xtick_13">
     <g id="line2d_13">
      <g>
       <use xlink:href="#ma71c6dfb97" x="226.52273" y="113.373071" style="stroke: #000000; stroke-width: 0.6"/>
      </g>
     </g>
     <g id="text_13">
      <text style="font-size: 7px; font-family: 'Arial', 'Helvetica', 'DejaVu Sans', sans-serif; text-anchor: end" x="231.533198" y="116.873071" transform="rotate(-90 231.533198 116.873071)">intestine</text>
     </g>
    </g>
    <g id="xtick_14">
     <g id="line2d_14">
      <g>
       <use xlink:href="#ma71c6dfb97" x="237.098914" y="113.373071" style="stroke: #000000; stroke-width: 0.6"/>
      </g>
     </g>
     <g id="text_14">
      <text style="font-size: 7px; font-family: 'Arial', 'Helvetica', 'DejaVu Sans', sans-serif; text-anchor: end" x="242.194695" y="116.873071" transform="rotate(-90 242.194695 116.873071)">islet of Langerhans</text>
     </g>
    </g>
    <g id="xtick_15">
     <g id="line2d_15">
      <g>
       <use xlink:href="#ma71c6dfb97" x="247.675097" y="113.373071" style="stroke: #000000; stroke-width: 0.6"/>
      </g>
     </g>
     <g id="text_15">
      <text style="font-size: 7px; font-family: 'Arial', 'Helvetica', 'DejaVu Sans', sans-serif; text-anchor: end" x="252.685566" y="116.873071" transform="rotate(-90 252.685566 116.873071)">kidney</text>
     </g>
    </g>
    <g id="xtick_16">
     <g id="line2d_16">
      <g>
       <use xlink:href="#ma71c6dfb97" x="258.251281" y="113.373071" style="stroke: #000000; stroke-width: 0.6"/>
      </g>
     </g>
     <g id="text_16">
      <text style="font-size: 7px; font-family: 'Arial', 'Helvetica', 'DejaVu Sans', sans-serif; text-anchor: end" x="263.26175" y="116.873071" transform="rotate(-90 263.26175 116.873071)">large intestine</text>
     </g>
    </g>
    <g id="xtick_17">
     <g id="line2d_17">
      <g>
       <use xlink:href="#ma71c6dfb97" x="268.827465" y="113.373071" style="stroke: #000000; stroke-width: 0.6"/>
      </g>
     </g>
     <g id="text_17">
      <text style="font-size: 7px; font-family: 'Arial', 'Helvetica', 'DejaVu Sans', sans-serif; text-anchor: end" x="273.837934" y="116.873071" transform="rotate(-90 273.837934 116.873071)">liver</text>
     </g>
    </g>
    <g id="xtick_18">
     <g id="line2d_18">
      <g>
       <use xlink:href="#ma71c6dfb97" x="279.403649" y="113.373071" style="stroke: #000000; stroke-width: 0.6"/>
      </g>
     </g>
     <g id="text_18">
      <text style="font-size: 7px; font-family: 'Arial', 'Helvetica', 'DejaVu Sans', sans-serif; text-anchor: end" x="284.414118" y="116.873071" transform="rotate(-90 284.414118 116.873071)">lung</text>
     </g>
    </g>
    <g id="xtick_19">
     <g id="line2d_19">
      <g>
       <use xlink:href="#ma71c6dfb97" x="289.979833" y="113.373071" style="stroke: #000000; stroke-width: 0.6"/>
      </g>
     </g>
     <g id="text_19">
      <text style="font-size: 7px; font-family: 'Arial', 'Helvetica', 'DejaVu Sans', sans-serif; text-anchor: end" x="294.990302" y="116.873071" transform="rotate(-90 294.990302 116.873071)">lymph node</text>
     </g>
    </g>
    <g id="xtick_20">
     <g id="line2d_20">
      <g>
       <use xlink:href="#ma71c6dfb97" x="300.556017" y="113.373071" style="stroke: #000000; stroke-width: 0.6"/>
      </g>
     </g>
     <g id="text_20">
      <text style="font-size: 7px; font-family: 'Arial', 'Helvetica', 'DejaVu Sans', sans-serif; text-anchor: end" x="305.566486" y="116.873071" transform="rotate(-90 305.566486 116.873071)">male reproductive system</text>
     </g>
    </g>
    <g id="xtick_21">
     <g id="line2d_21">
      <g>
       <use xlink:href="#ma71c6dfb97" x="311.132201" y="113.373071" style="stroke: #000000; stroke-width: 0.6"/>
      </g>
     </g>
     <g id="text_21">
      <text style="font-size: 7px; font-family: 'Arial', 'Helvetica', 'DejaVu Sans', sans-serif; text-anchor: end" x="316.14267" y="116.873071" transform="rotate(-90 316.14267 116.873071)">mammary gland</text>
     </g>
    </g>
    <g id="xtick_22">
     <g id="line2d_22">
      <g>
       <use xlink:href="#ma71c6dfb97" x="321.708385" y="113.373071" style="stroke: #000000; stroke-width: 0.6"/>
      </g>
     </g>
     <g id="text_22">
      <text style="font-size: 7px; font-family: 'Arial', 'Helvetica', 'DejaVu Sans', sans-serif; text-anchor: end" x="326.718854" y="116.873071" transform="rotate(-90 326.718854 116.873071)">mesenteric lymph node</text>
     </g>
    </g>
    <g id="xtick_23">
     <g id="line2d_23">
      <g>
       <use xlink:href="#ma71c6dfb97" x="332.284569" y="113.373071" style="stroke: #000000; stroke-width: 0.6"/>
      </g>
     </g>
     <g id="text_23">
      <text style="font-size: 7px; font-family: 'Arial', 'Helvetica', 'DejaVu Sans', sans-serif; text-anchor: end" x="337.295037" y="116.873071" transform="rotate(-90 337.295037 116.873071)">oral cavity</text>
     </g>
    </g>
    <g id="xtick_24">
     <g id="line2d_24">
      <g>
       <use xlink:href="#ma71c6dfb97" x="342.860753" y="113.373071" style="stroke: #000000; stroke-width: 0.6"/>
      </g>
     </g>
     <g id="text_24">
      <text style="font-size: 7px; font-family: 'Arial', 'Helvetica', 'DejaVu Sans', sans-serif; text-anchor: end" x="347.871221" y="116.873071" transform="rotate(-90 347.871221 116.873071)">palatine tonsil</text>
     </g>
    </g>
    <g id="xtick_25">
     <g id="line2d_25">
      <g>
       <use xlink:href="#ma71c6dfb97" x="353.436936" y="113.373071" style="stroke: #000000; stroke-width: 0.6"/>
      </g>
     </g>
     <g id="text_25">
      <text style="font-size: 7px; font-family: 'Arial', 'Helvetica', 'DejaVu Sans', sans-serif; text-anchor: end" x="358.447405" y="116.873071" transform="rotate(-90 358.447405 116.873071)">pancreas</text>
     </g>
    </g>
    <g id="xtick_26">
     <g id="line2d_26">
      <g>
       <use xlink:href="#ma71c6dfb97" x="364.01312" y="113.373071" style="stroke: #000000; stroke-width: 0.6"/>
      </g>
     </g>
     <g id="text_26">
      <text style="font-size: 7px; font-family: 'Arial', 'Helvetica', 'DejaVu Sans', sans-serif; text-anchor: end" x="369.023589" y="116.873071" transform="rotate(-90 369.023589 116.873071)">placenta</text>
     </g>
    </g>
    <g id="xtick_27">
     <g id="line2d_27">
      <g>
       <use xlink:href="#ma71c6dfb97" x="374.589304" y="113.373071" style="stroke: #000000; stroke-width: 0.6"/>
      </g>
     </g>
     <g id="text_27">
      <text style="font-size: 7px; font-family: 'Arial', 'Helvetica', 'DejaVu Sans', sans-serif; text-anchor: end" x="379.599773" y="116.873071" transform="rotate(-90 379.599773 116.873071)">primary motor cortex</text>
     </g>
    </g>
    <g id="xtick_28">
     <g id="line2d_28">
      <g>
       <use xlink:href="#ma71c6dfb97" x="385.165488" y="113.373071" style="stroke: #000000; stroke-width: 0.6"/>
      </g>
     </g>
     <g id="text_28">
      <text style="font-size: 7px; font-family: 'Arial', 'Helvetica', 'DejaVu Sans', sans-serif; text-anchor: end" x="390.175957" y="116.873071" transform="rotate(-90 390.175957 116.873071)">prostate gland</text>
     </g>
    </g>
    <g id="xtick_29">
     <g id="line2d_29">
      <g>
       <use xlink:href="#ma71c6dfb97" x="395.741672" y="113.373071" style="stroke: #000000; stroke-width: 0.6"/>
      </g>
     </g>
     <g id="text_29">
      <text style="font-size: 7px; font-family: 'Arial', 'Helvetica', 'DejaVu Sans', sans-serif; text-anchor: end" x="400.752141" y="116.873071" transform="rotate(-90 400.752141 116.873071)">respiratory system</text>
     </g>
    </g>
    <g id="xtick_30">
     <g id="line2d_30">
      <g>
       <use xlink:href="#ma71c6dfb97" x="406.317856" y="113.373071" style="stroke: #000000; stroke-width: 0.6"/>
      </g>
     </g>
     <g id="text_30">
      <text style="font-size: 7px; font-family: 'Arial', 'Helvetica', 'DejaVu Sans', sans-serif; text-anchor: end" x="411.328325" y="116.873071" transform="rotate(-90 411.328325 116.873071)">skeletal muscle tissue</text>
     </g>
    </g>
    <g id="xtick_31">
     <g id="line2d_31">
      <g>
       <use xlink:href="#ma71c6dfb97" x="416.89404" y="113.373071" style="stroke: #000000; stroke-width: 0.6"/>
      </g>
     </g>
     <g id="text_31">
      <text style="font-size: 7px; font-family: 'Arial', 'Helvetica', 'DejaVu Sans', sans-serif; text-anchor: end" x="421.989821" y="116.873071" transform="rotate(-90 421.989821 116.873071)">skin of body</text>
     </g>
    </g>
    <g id="xtick_32">
     <g id="line2d_32">
      <g>
       <use xlink:href="#ma71c6dfb97" x="427.470224" y="113.373071" style="stroke: #000000; stroke-width: 0.6"/>
      </g>
     </g>
     <g id="text_32">
      <text style="font-size: 7px; font-family: 'Arial', 'Helvetica', 'DejaVu Sans', sans-serif; text-anchor: end" x="432.480693" y="116.873071" transform="rotate(-90 432.480693 116.873071)">small intestine</text>
     </g>
    </g>
    <g id="xtick_33">
     <g id="line2d_33">
      <g>
       <use xlink:href="#ma71c6dfb97" x="438.046408" y="113.373071" style="stroke: #000000; stroke-width: 0.6"/>
      </g>
     </g>
     <g id="text_33">
      <text style="font-size: 7px; font-family: 'Arial', 'Helvetica', 'DejaVu Sans', sans-serif; text-anchor: end" x="443.056876" y="116.873071" transform="rotate(-90 443.056876 116.873071)">spleen</text>
     </g>
    </g>
    <g id="xtick_34">
     <g id="line2d_34">
      <g>
       <use xlink:href="#ma71c6dfb97" x="448.622592" y="113.373071" style="stroke: #000000; stroke-width: 0.6"/>
      </g>
     </g>
     <g id="text_34">
      <text style="font-size: 7px; font-family: 'Arial', 'Helvetica', 'DejaVu Sans', sans-serif; text-anchor: end" x="453.63306" y="116.873071" transform="rotate(-90 453.63306 116.873071)">stomach</text>
     </g>
    </g>
    <g id="xtick_35">
     <g id="line2d_35">
      <g>
       <use xlink:href="#ma71c6dfb97" x="459.198775" y="113.373071" style="stroke: #000000; stroke-width: 0.6"/>
      </g>
     </g>
     <g id="text_35">
      <text style="font-size: 7px; font-family: 'Arial', 'Helvetica', 'DejaVu Sans', sans-serif; text-anchor: end" x="464.209244" y="116.873071" transform="rotate(-90 464.209244 116.873071)">thymus</text>
     </g>
    </g>
    <g id="xtick_36">
     <g id="line2d_36">
      <g>
       <use xlink:href="#ma71c6dfb97" x="469.774959" y="113.373071" style="stroke: #000000; stroke-width: 0.6"/>
      </g>
     </g>
     <g id="text_36">
      <text style="font-size: 7px; font-family: 'Arial', 'Helvetica', 'DejaVu Sans', sans-serif; text-anchor: end" x="474.703397" y="116.873071" transform="rotate(-90 474.703397 116.873071)">tongue</text>
     </g>
    </g>
    <g id="xtick_37">
     <g id="line2d_37">
      <g>
       <use xlink:href="#ma71c6dfb97" x="480.351143" y="113.373071" style="stroke: #000000; stroke-width: 0.6"/>
      </g>
     </g>
     <g id="text_37">
      <text style="font-size: 7px; font-family: 'Arial', 'Helvetica', 'DejaVu Sans', sans-serif; text-anchor: end" x="485.361612" y="116.873071" transform="rotate(-90 485.361612 116.873071)">tonsil</text>
     </g>
    </g>
    <g id="xtick_38">
     <g id="line2d_38">
      <g>
       <use xlink:href="#ma71c6dfb97" x="490.927327" y="113.373071" style="stroke: #000000; stroke-width: 0.6"/>
      </g>
     </g>
     <g id="text_38">
      <text style="font-size: 7px; font-family: 'Arial', 'Helvetica', 'DejaVu Sans', sans-serif; text-anchor: end" x="495.937796" y="116.873071" transform="rotate(-90 495.937796 116.873071)">trachea</text>
     </g>
    </g>
    <g id="xtick_39">
     <g id="line2d_39">
      <g>
       <use xlink:href="#ma71c6dfb97" x="501.503511" y="113.373071" style="stroke: #000000; stroke-width: 0.6"/>
      </g>
     </g>
     <g id="text_39">
      <text style="font-size: 7px; font-family: 'Arial', 'Helvetica', 'DejaVu Sans', sans-serif; text-anchor: end" x="506.599292" y="116.873071" transform="rotate(-90 506.599292 116.873071)">Unspecified</text>
     </g>
    </g>
    <g id="xtick_40">
     <g id="line2d_40">
      <g>
       <use xlink:href="#ma71c6dfb97" x="512.079695" y="113.373071" style="stroke: #000000; stroke-width: 0.6"/>
      </g>
     </g>
     <g id="text_40">
      <text style="font-size: 7px; font-family: 'Arial', 'Helvetica', 'DejaVu Sans', sans-serif; text-anchor: end" x="517.090164" y="116.873071" transform="rotate(-90 517.090164 116.873071)">urinary bladder</text>
     </g>
    </g>
    <g id="xtick_41">
     <g id="line2d_41">
      <g>
       <use xlink:href="#ma71c6dfb97" x="522.655879" y="113.373071" style="stroke: #000000; stroke-width: 0.6"/>
      </g>
     </g>
     <g id="text_41">
      <text style="font-size: 7px; font-family: 'Arial', 'Helvetica', 'DejaVu Sans', sans-serif; text-anchor: end" x="527.666348" y="116.873071" transform="rotate(-90 527.666348 116.873071)">uterus</text>
     </g>
    </g>
    <g id="xtick_42">
     <g id="line2d_42">
      <g>
       <use xlink:href="#ma71c6dfb97" x="533.232063" y="113.373071" style="stroke: #000000; stroke-width: 0.6"/>
      </g>
     </g>
     <g id="text_42">
      <text style="font-size: 7px; font-family: 'Arial', 'Helvetica', 'DejaVu Sans', sans-serif; text-anchor: end" x="538.242532" y="116.873071" transform="rotate(-90 538.242532 116.873071)">white adipose tissue</text>
     </g>
    </g>
    <g id="text_43">
     <text style="font-size: 7px; font-family: 'Arial', 'Helvetica', 'DejaVu Sans', sans-serif; text-anchor: middle" x="316.420293" y="208.719633" transform="rotate(-0 316.420293 208.719633)">Organ</text>
    </g>
   </g>
   <g id="matplotlib.axis_2">
    <g id="ytick_1">
     <g id="line2d_43">
      <defs>
       <path id="m8beafcde8c" d="M 0 0 
L -2.5 0 
" style="stroke: #000000; stroke-width: 0.6"/>
      </defs>
      <g>
       <use xlink:href="#m8beafcde8c" x="93.262813" y="8.024298" style="stroke: #000000; stroke-width: 0.6"/>
      </g>
     </g>
     <g id="text_44">
      <text style="font-size: 7px; font-family: 'Arial', 'Helvetica', 'DejaVu Sans', sans-serif; text-anchor: end" x="88.762813" y="10.529533" transform="rotate(-0 88.762813 10.529533)">Azimuth</text>
     </g>
    </g>
    <g id="ytick_2">
     <g id="line2d_44">
      <g>
       <use xlink:href="#m8beafcde8c" x="93.262813" y="18.998129" style="stroke: #000000; stroke-width: 0.6"/>
      </g>
     </g>
     <g id="text_45">
      <text style="font-size: 7px; font-family: 'Arial', 'Helvetica', 'DejaVu Sans', sans-serif; text-anchor: end" x="88.762813" y="21.546019" transform="rotate(-0 88.762813 21.546019)">CellTypist</text>
     </g>
    </g>
    <g id="ytick_3">
     <g id="line2d_45">
      <g>
       <use xlink:href="#m8beafcde8c" x="93.262813" y="29.971959" style="stroke: #000000; stroke-width: 0.6"/>
      </g>
     </g>
     <g id="text_46">
      <text style="font-size: 7px; font-family: 'Arial', 'Helvetica', 'DejaVu Sans', sans-serif; text-anchor: end" x="88.762813" y="32.477194" transform="rotate(-0 88.762813 32.477194)">deepcelltypes</text>
     </g>
    </g>
    <g id="ytick_4">
     <g id="line2d_46">
      <g>
       <use xlink:href="#m8beafcde8c" x="93.262813" y="40.94579" style="stroke: #000000; stroke-width: 0.6"/>
      </g>
     </g>
     <g id="text_47">
      <text style="font-size: 7px; font-family: 'Arial', 'Helvetica', 'DejaVu Sans', sans-serif; text-anchor: end" x="88.762813" y="43.451024" transform="rotate(-0 88.762813 43.451024)">deepcelltypes-HuBMAP</text>
     </g>
    </g>
    <g id="ytick_5">
     <g id="line2d_47">
      <g>
       <use xlink:href="#m8beafcde8c" x="93.262813" y="51.91962" style="stroke: #000000; stroke-width: 0.6"/>
      </g>
     </g>
     <g id="text_48">
      <text style="font-size: 7px; font-family: 'Arial', 'Helvetica', 'DejaVu Sans', sans-serif; text-anchor: end" x="88.762813" y="54.424855" transform="rotate(-0 88.762813 54.424855)">FRMatch</text>
     </g>
    </g>
    <g id="ytick_6">
     <g id="line2d_48">
      <g>
       <use xlink:href="#m8beafcde8c" x="93.262813" y="62.893451" style="stroke: #000000; stroke-width: 0.6"/>
      </g>
     </g>
     <g id="text_49">
      <text style="font-size: 7px; font-family: 'Arial', 'Helvetica', 'DejaVu Sans', sans-serif; text-anchor: end" x="88.762813" y="65.398685" transform="rotate(-0 88.762813 65.398685)">Pan-human Azimuth</text>
     </g>
    </g>
    <g id="ytick_7">
     <g id="line2d_49">
      <g>
       <use xlink:href="#m8beafcde8c" x="93.262813" y="73.867281" style="stroke: #000000; stroke-width: 0.6"/>
      </g>
     </g>
     <g id="text_50">
      <text style="font-size: 7px; font-family: 'Arial', 'Helvetica', 'DejaVu Sans', sans-serif; text-anchor: end" x="88.762813" y="76.372516" transform="rotate(-0 88.762813 76.372516)">popV</text>
     </g>
    </g>
    <g id="ytick_8">
     <g id="line2d_50">
      <g>
       <use xlink:href="#m8beafcde8c" x="93.262813" y="84.841112" style="stroke: #000000; stroke-width: 0.6"/>
      </g>
     </g>
     <g id="text_51">
      <text style="font-size: 7px; font-family: 'Arial', 'Helvetica', 'DejaVu Sans', sans-serif; text-anchor: end" x="88.762813" y="87.346346" transform="rotate(-0 88.762813 87.346346)">RIBCA</text>
     </g>
    </g>
    <g id="ytick_9">
     <g id="line2d_51">
      <g>
       <use xlink:href="#m8beafcde8c" x="93.262813" y="95.814942" style="stroke: #000000; stroke-width: 0.6"/>
      </g>
     </g>
     <g id="text_52">
      <text style="font-size: 7px; font-family: 'Arial', 'Helvetica', 'DejaVu Sans', sans-serif; text-anchor: end" x="88.762813" y="98.320176" transform="rotate(-0 88.762813 98.320176)">STELLAR</text>
     </g>
    </g>
    <g id="ytick_10">
     <g id="line2d_52">
      <g>
       <use xlink:href="#m8beafcde8c" x="93.262813" y="106.788773" style="stroke: #000000; stroke-width: 0.6"/>
      </g>
     </g>
     <g id="text_53">
      <text style="font-size: 7px; font-family: 'Arial', 'Helvetica', 'DejaVu Sans', sans-serif; text-anchor: end" x="88.762813" y="109.294007" transform="rotate(-0 88.762813 109.294007)">VCCF</text>
     </g>
    </g>
    <g id="text_54">
     <text style="font-size: 7px; font-family: 'Arial', 'Helvetica', 'DejaVu Sans', sans-serif; text-anchor: middle" x="6.450469" y="57.406535" transform="rotate(-90 6.450469 57.406535)">Tool</text>
    </g>
   </g>
   <g id="patch_3">
    <path d="M 93.262813 113.373071 
L 93.262813 1.44 
" style="fill: none; stroke: #000000; stroke-width: 0.6; stroke-linejoin: miter; stroke-linecap: square"/>
   </g>
   <g id="patch_4">
    <path d="M 93.262812 113.373071 
L 539.577773 113.373071 
" style="fill: none; stroke: #000000; stroke-width: 0.6; stroke-linejoin: miter; stroke-linecap: square"/>
   </g>
   <g id="legend_1">
    <g id="text_55">
     <text style="font-size: 7px; font-family: 'Arial', 'Helvetica', 'DejaVu Sans', sans-serif; text-anchor: start" x="543.270403" y="9.335781" transform="rotate(-0 543.270403 9.335781)">Cell Types per Tool</text>
    </g>
    <g id="PathCollection_5">
     <defs>
      <path id="me23a7ab10f" d="M 0 1.423025 
C 0.377391 1.423025 0.739375 1.273086 1.006231 1.006231 
C 1.273086 0.739375 1.423025 0.377391 1.423025 0 
C 1.423025 -0.377391 1.273086 -0.739375 1.006231 -1.006231 
C 0.739375 -1.273086 0.377391 -1.423025 0 -1.423025 
C -0.377391 -1.423025 -0.739375 -1.273086 -1.006231 -1.006231 
C -1.273086 -0.739375 -1.423025 -0.377391 -1.423025 0 
C -1.423025 0.377391 -1.273086 0.739375 -1.006231 1.006231 
C -0.739375 1.273086 -0.377391 1.423025 0 1.423025 
z
"/>
     </defs>
     <g>
      <use xlink:href="#me23a7ab10f" x="563.919856" y="20.989687" style="fill: #1f77b4; fill-opacity: 0.9"/>
     </g>
    </g>
    <g id="text_56">
     <text style="font-size: 7px; font-family: 'Arial', 'Helvetica', 'DejaVu Sans', sans-serif; text-anchor: start" x="577.219856" y="23.339062" transform="rotate(-0 577.219856 23.339062)">5</text>
    </g>
    <g id="PathCollection_6">
     <defs>
      <path id="m8e005f3384" d="M 0 3.972405 
C 1.053494 3.972405 2.063982 3.553847 2.808914 2.808914 
C 3.553847 2.063982 3.972405 1.053494 3.972405 0 
C 3.972405 -1.053494 3.553847 -2.063982 2.808914 -2.808914 
C 2.063982 -3.553847 1.053494 -3.972405 0 -3.972405 
C -1.053494 -3.972405 -2.063982 -3.553847 -2.808914 -2.808914 
C -3.553847 -2.063982 -3.972405 -1.053494 -3.972405 0 
C -3.972405 1.053494 -3.553847 2.063982 -2.808914 2.808914 
C -2.063982 3.553847 -1.053494 3.972405 0 3.972405 
z
"/>
     </defs>
     <g>
      <use xlink:href="#m8e005f3384" x="563.919856" y="34.910937" style="fill: #1f77b4; fill-opacity: 0.9"/>
     </g>
    </g>
    <g id="text_57">
     <text style="font-size: 7px; font-family: 'Arial', 'Helvetica', 'DejaVu Sans', sans-serif; text-anchor: start" x="577.219856" y="37.260312" transform="rotate(-0 577.219856 37.260312)">136</text>
    </g>
    <g id="PathCollection_7">
     <defs>
      <path id="mf7e91f6384" d="M 0 6.906519 
C 1.83163 6.906519 3.588488 6.178804 4.883646 4.883646 
C 6.178804 3.588488 6.906519 1.83163 6.906519 0 
C 6.906519 -1.83163 6.178804 -3.588488 4.883646 -4.883646 
C 3.588488 -6.178804 1.83163 -6.906519 0 -6.906519 
C -1.83163 -6.906519 -3.588488 -6.178804 -4.883646 -4.883646 
C -6.178804 -3.588488 -6.906519 -1.83163 -6.906519 0 
C -6.906519 1.83163 -6.178804 3.588488 -4.883646 4.883646 
C -3.588488 6.178804 -1.83163 6.906519 0 6.906519 
z
"/>
     </defs>
     <g>
      <use xlink:href="#mf7e91f6384" x="563.919856" y="48.832187" style="fill: #1f77b4; fill-opacity: 0.9"/>
     </g>
    </g>
    <g id="text_58">
     <text style="font-size: 7px; font-family: 'Arial', 'Helvetica', 'DejaVu Sans', sans-serif; text-anchor: start" x="577.219856" y="51.181562" transform="rotate(-0 577.219856 51.181562)">440</text>
    </g>
   </g>
  </g>
 </g>
 <defs>
  <clipPath id="p9ffd413dbb">
   <rect x="93.262813" y="1.44" width="446.314961" height="111.933071"/>
  </clipPath>
 </defs>
</svg>
